<?xml version="1.0" encoding="UTF-8"?>
<svg viewBox="0 0 50 50" version="1.1" xmlns="http://www.w3.org/2000/svg" xmlns:xlink="http://www.w3.org/1999/xlink">
    <!-- Generator: Sketch 45.1 (43504) - http://www.bohemiancoding.com/sketch -->
    <title>icon1</title>
    <desc>Created with Sketch.</desc>
    <defs></defs>
    <g id="Page-1" stroke="none" stroke-width="1" fill="none" fill-rule="evenodd">
        <g id="Artboard" fill="#FFFFFF">
            <g id="icon1">
                <g id="Group" transform="translate(11.000000, 20.000000)" stroke="#FFFFFF" stroke-width="0.25">
                    <path d="M7,10.6 C6.7,10.6 6.5,10.4 6.5,10.1 C6.5,9.8 6.7,9.6 7,9.6 C7.7,9.6 8.3,9.3 8.7,8.9 L8.7,8.9 C9.1,8.5 9.4,7.8 9.4,7.2 C9.4,6.5 9.1,5.9 8.7,5.5 L8.7,5.5 C8.3,5.1 7.6,4.8 7,4.8 L1.1,4.8 C0.8,4.8 0.6,4.6 0.6,4.3 C0.6,4 0.8,3.8 1.1,3.8 L7,3.8 C7.9,3.8 8.8,4.2 9.4,4.8 L9.4,4.8 L9.4,4.8 C10,5.4 10.4,6.3 10.4,7.2 C10.4,8.1 10,9 9.4,9.6 L9.4,9.6 L9.4,9.6 C8.8,10.2 7.9,10.6 7,10.6 Z" id="Shape"></path>
                    <path d="M7,10.6 C6.7,10.6 6.5,10.4 6.5,10.1 C6.5,9.8 6.7,9.6 7,9.6 C8.2,9.6 9.3,10.1 10.1,10.9 L10.1,10.9 C10.9,11.7 11.4,12.8 11.4,14 C11.4,15.2 10.9,16.3 10.1,17.1 L10.1,17.1 L10.1,17.1 C9.3,17.9 8.2,18.4 7,18.4 L1.1,18.4 C0.8,18.4 0.6,18.2 0.6,17.9 C0.6,17.6 0.8,17.4 1.1,17.4 L7,17.4 C7.9,17.4 8.8,17 9.4,16.4 L9.4,16.4 C10,15.8 10.4,14.9 10.4,14 C10.4,13.1 10,12.2 9.4,11.6 L9.4,11.6 C8.8,10.9 7.9,10.6 7,10.6 Z" id="Shape"></path>
                    <path d="M5,10.6 C4.7,10.6 4.5,10.4 4.5,10.1 C4.5,9.8 4.7,9.6 5,9.6 L7,9.6 C7.3,9.6 7.5,9.8 7.5,10.1 C7.5,10.4 7.3,10.6 7,10.6 L5,10.6 Z" id="Shape"></path>
                    <path d="M2.6,4.2 C2.6,3.9 2.8,3.7 3.1,3.7 C3.4,3.7 3.6,3.9 3.6,4.2 L3.6,18 C3.6,18.3 3.4,18.5 3.1,18.5 C2.8,18.5 2.6,18.3 2.6,18 L2.6,4.2 Z" id="Shape"></path>
                    <path d="M3.5,1.2 C3.5,0.9 3.7,0.7 4,0.7 C4.3,0.7 4.5,0.9 4.5,1.2 L4.5,4.1 C4.5,4.4 4.3,4.6 4,4.6 C3.7,4.6 3.5,4.4 3.5,4.1 L3.5,1.2 Z" id="Shape"></path>
                    <path d="M3.5,17.9 C3.5,17.6 3.7,17.4 4,17.4 C4.3,17.4 4.5,17.6 4.5,17.9 L4.5,20.8 C4.5,21.1 4.3,21.3 4,21.3 C3.7,21.3 3.5,21.1 3.5,20.8 L3.5,17.9 Z" id="Shape"></path>
                    <path d="M6.5,1.2 C6.5,0.9 6.7,0.7 7,0.7 C7.3,0.7 7.5,0.9 7.5,1.2 L7.5,4.1 C7.5,4.4 7.3,4.6 7,4.6 C6.7,4.6 6.5,4.4 6.5,4.1 L6.5,1.2 Z" id="Shape"></path>
                    <path d="M6.5,17.9 C6.5,17.6 6.7,17.4 7,17.4 C7.3,17.4 7.5,17.6 7.5,17.9 L7.5,20.8 C7.5,21.1 7.3,21.3 7,21.3 C6.7,21.3 6.5,21.1 6.5,20.8 L6.5,17.9 Z" id="Shape"></path>
                </g>
                <path d="M14.6,6.2 C14.4,5.9 14.4,5.4 14.8,5.1 C15.1,4.9 15.6,4.9 15.9,5.3 L17,7 L18.2,5.4 C18.4,5.1 18.9,5 19.3,5.2 C19.6,5.4 19.7,5.9 19.5,6.3 L17.7,8.8 C17.7,8.9 17.6,8.9 17.5,9 C17.2,9.2 16.7,9.2 16.4,8.8 L14.6,6.2 Z" id="Shape"></path>
                <path d="M29.7,40.9 C29.7,41.3 29.4,41.7 28.9,41.7 C28.5,41.7 28.1,41.4 28.1,40.9 L28.1,29 C28.1,25.9 26.8,23.1 24.8,21.1 L24.8,21.1 L24.8,21.1 C22.8,19.1 20,17.8 16.9,17.8 C13.8,17.8 11,19.1 9,21.1 L9,21.1 C7,23.1 5.8,25.9 5.8,29 L5.8,44.2 L29,44.2 C29.4,44.2 29.8,44.5 29.8,45 C29.8,45.5 29.5,45.8 29,45.8 L5.1,45.8 L5.1,45.8 C4.7,45.8 4.3,45.5 4.3,45 L4.3,29 C4.3,25.5 5.7,22.4 8,20.1 L8,20.1 C10.3,17.8 13.5,16.4 17,16.4 C20.5,16.4 23.7,17.8 26,20.1 L26,20.1 C28.3,22.4 29.7,25.6 29.7,29.1 L29.7,40.9 Z" id="Shape"></path>
                <path d="M19.9,13.6 C19.7,14 19.2,14.1 18.8,13.9 C18.4,13.7 18.3,13.2 18.5,12.8 L23.9,3.5 C23,3 22,2.7 20.9,2.4 C19.7,2 18.4,1.9 17,1.9 C15.6,1.9 14.3,2.1 13.1,2.4 C12.1,2.7 11.1,3.1 10.1,3.5 L15.5,12.8 C15.7,13.2 15.6,13.6 15.2,13.9 C14.8,14.1 14.4,14 14.1,13.6 L8.3,3.6 C8.1,3.2 8.2,2.8 8.6,2.5 C9.8,1.8 11.2,1.2 12.6,0.8 C14,0.4 15.4,0.2 16.9,0.2 C18.4,0.2 19.8,0.4 21.2,0.8 C22.6,1.2 24,1.7 25.2,2.5 L25.2,2.5 C25.6,2.7 25.7,3.2 25.5,3.6 L19.9,13.6 Z" id="Shape"></path>
                <path d="M19.1,14 C18.7,13.9 18.4,13.6 18.4,13.1 C18.5,12.7 18.8,12.4 19.3,12.4 C23.4,13 27,15.1 29.6,18 L29.6,18 C32.2,20.9 33.7,24.8 33.7,29 L33.7,48.9 C33.7,49.3 33.4,49.7 32.9,49.7 L32.9,49.7 L1.1,49.7 C0.7,49.7 0.3,49.4 0.3,48.9 L0.3,48.9 L0.3,29 C0.3,25.6 1.3,22.5 3,19.9 C4.8,17.2 7.3,15 10.3,13.7 C10.7,13.5 11.1,13.7 11.3,14.1 C11.5,14.5 11.3,14.9 10.9,15.1 C8.2,16.3 5.9,18.3 4.3,20.7 C2.8,23.1 1.9,25.9 1.9,29 L1.9,48.1 L32.2,48.1 L32.2,29 C32.2,25.2 30.8,21.7 28.5,19.1 L28.5,19.1 L28.5,19.1 C26.1,16.3 22.8,14.5 19.1,14 L19.1,14 Z M14.9,14 L14.9,14 C15.3,14 15.6,13.6 15.6,13.2 C15.6,12.8 15.2,12.5 14.8,12.5 L14.8,12.5 C14.4,12.5 14.1,12.9 14.1,13.3 C14.1,13.7 14.4,14 14.9,14 Z" id="Shape"></path>
            </g>
        </g>
    </g>
</svg>