<?xml version="1.0" encoding="utf-8"?>
<!-- Generator: Adobe Illustrator 21.1.0, SVG Export Plug-In . SVG Version: 6.00 Build 0)  -->
<svg version="1.1" id="Слой_1" xmlns="http://www.w3.org/2000/svg" xmlns:xlink="http://www.w3.org/1999/xlink" x="0px" y="0px"
	 viewBox="0 0 50 50" style="enable-background:new 0 0 50 50;" xml:space="preserve">
<style type="text/css">
	.st0{fill-rule:evenodd;clip-rule:evenodd;fill:#FFFFFF;}
</style>
<g>
	<path class="st0" d="M0.8,49.7c-0.4,0-0.8-0.3-0.8-0.8c0-0.4,0.3-0.8,0.8-0.8h47.7c0.4,0,0.8,0.3,0.8,0.8c0,0.4-0.3,0.8-0.8,0.8
		H0.8z"/>
	<path class="st0" d="M3.2,17.4h42.9L24.6,2.1L3.2,17.4L3.2,17.4z M48.5,18.9H0.8v0c-0.2,0-0.5-0.1-0.6-0.3
		c-0.2-0.3-0.2-0.8,0.2-1.1L24.2,0.6l0,0l0,0c0.3-0.2,0.6-0.2,0.9,0l23.8,16.9c0.2,0.1,0.4,0.4,0.4,0.7
		C49.2,18.6,48.9,18.9,48.5,18.9z"/>
	<path class="st0" d="M24.2,8c-0.4-0.2-0.4-0.7-0.2-1.1c0.2-0.4,0.7-0.5,1.1-0.2l6.9,4.6c0.4,0.2,0.4,0.7,0.2,1.1
		c-0.2,0.4-0.7,0.4-1.1,0.2L24.2,8z"/>
	<path class="st0" d="M2.9,46.6c-0.4,0-0.8-0.3-0.8-0.8c0-0.4,0.3-0.8,0.8-0.8h43.5c0.4,0,0.8,0.3,0.8,0.8c0,0.4-0.3,0.8-0.8,0.8
		H2.9z"/>
	<path class="st0" d="M4.9,43.5c-0.4,0-0.8-0.3-0.8-0.8S4.5,42,4.9,42h39.4c0.4,0,0.8,0.3,0.8,0.8s-0.3,0.8-0.8,0.8H4.9z"/>
	<path class="st0" d="M36.9,21.2c0-0.4,0.3-0.8,0.8-0.8c0.4,0,0.8,0.3,0.8,0.8v17.7h3.1V21.2c0-0.4,0.3-0.8,0.8-0.8
		c0.4,0,0.8,0.3,0.8,0.8v18.5v0c0,0.4-0.3,0.8-0.8,0.8h-4.6h0c-0.4,0-0.8-0.3-0.8-0.8V21.2z"/>
	<path class="st0" d="M24.2,6.7c0.4-0.2,0.8-0.1,1.1,0.2c0.2,0.4,0.1,0.8-0.2,1.1l-6.9,4.6c-0.4,0.2-0.8,0.1-1.1-0.2
		c-0.2-0.4-0.1-0.8,0.2-1.1L24.2,6.7z"/>
	<path class="st0" d="M6.1,21.2c0-0.4,0.3-0.8,0.8-0.8c0.4,0,0.8,0.3,0.8,0.8v17.7h3.1V21.2c0-0.4,0.3-0.8,0.8-0.8
		c0.4,0,0.8,0.3,0.8,0.8v18.5v0c0,0.4-0.3,0.8-0.8,0.8H6.9h0c-0.4,0-0.8-0.3-0.8-0.8V21.2z"/>
	<path class="st0" d="M16.2,21.2c0-0.4,0.3-0.8,0.8-0.8c0.4,0,0.8,0.3,0.8,0.8v17.7h3.1V21.2c0-0.4,0.3-0.8,0.8-0.8
		c0.4,0,0.8,0.3,0.8,0.8v18.5v0c0,0.4-0.3,0.8-0.8,0.8h-4.6h0c-0.4,0-0.8-0.3-0.8-0.8V21.2z"/>
	<path class="st0" d="M26.9,21.2c0-0.4,0.3-0.8,0.8-0.8c0.4,0,0.8,0.3,0.8,0.8v17.7h3.1V21.2c0-0.4,0.3-0.8,0.8-0.8
		c0.4,0,0.8,0.3,0.8,0.8v18.5v0c0,0.4-0.3,0.8-0.8,0.8h-4.6h0c-0.4,0-0.8-0.3-0.8-0.8V21.2z"/>
</g>
</svg>
