<?xml version="1.0" encoding="UTF-8"?>
<svg viewBox="0 0 50 50" version="1.1" xmlns="http://www.w3.org/2000/svg" xmlns:xlink="http://www.w3.org/1999/xlink">
    <!-- Generator: Sketch 45.1 (43504) - http://www.bohemiancoding.com/sketch -->
    <title>icon2</title>
    <desc>Created with Sketch.</desc>
    <defs></defs>
    <g id="Page-1" stroke="none" stroke-width="1" fill="none" fill-rule="evenodd">
        <g id="Artboard" fill="#FFFFFF">
            <g id="icon2">
                <path d="M15.2,6 C15,5.6 15,5.2 15.4,4.9 C15.8,4.7 16.2,4.7 16.5,5.1 L17.7,6.8 L18.9,5.1 C19.1,4.7 19.6,4.7 20,4.9 C20.4,5.1 20.4,5.6 20.2,6 L18.4,8.6 C18.3,8.7 18.3,8.7 18.2,8.8 C17.8,9 17.4,9 17.1,8.6 L15.2,6 Z" id="Shape"></path>
                <path d="M30.6,41.1 C30.6,41.5 30.2,41.9 29.8,41.9 C29.4,41.9 29,41.5 29,41.1 L29,29 C29,25.9 27.7,23 25.7,21 L25.7,21 L25.7,21 C23.7,19 20.8,17.7 17.7,17.7 C14.6,17.7 11.7,19 9.7,21 L9.7,21 C7.7,23 6.4,25.9 6.4,29 L6.4,44.4 L29.8,44.4 C30.2,44.4 30.6,44.8 30.6,45.2 C30.6,45.6 30.2,46 29.8,46 L5.6,46 L5.6,46 C5.2,46 4.8,45.6 4.8,45.2 L4.8,29 C4.8,25.5 6.2,22.3 8.5,19.9 L8.5,19.9 C10.8,17.6 14.1,16.1 17.6,16.1 C21.2,16.1 24.4,17.5 26.7,19.9 L26.7,19.9 C29,22.2 30.5,25.5 30.5,29 L30.5,41.1 L30.6,41.1 Z" id="Shape"></path>
                <path d="M12.9,35.1 C12.9,34.7 13.3,34.3 13.7,34.3 C14.1,34.3 14.5,34.7 14.5,35.1 C14.5,36 14.9,36.8 15.5,37.4 C16.1,38 16.9,38.4 17.8,38.4 C18.7,38.4 19.5,38 20.1,37.4 C20.7,36.8 21.1,36 21.1,35.1 C21.1,34.2 20.7,33.4 20.2,32.8 L20.2,32.8 C19.6,32.2 18.8,31.9 17.9,31.9 C16.9,31.9 15.9,31.5 15.2,30.8 L15.2,30.8 C14.5,30.1 14.1,29.2 14.1,28.1 C14.1,27 14.5,26.1 15.2,25.4 L15.3,25.4 C16,24.7 16.9,24.3 17.9,24.3 C19,24.3 19.9,24.7 20.6,25.4 C21.3,26.1 21.7,27 21.7,28.1 C21.7,28.5 21.3,28.9 20.9,28.9 C20.5,28.9 20.1,28.5 20.1,28.1 C20.1,27.5 19.8,26.9 19.4,26.5 C19,26.1 18.4,25.8 17.8,25.8 C17.2,25.8 16.7,26 16.3,26.4 L16.3,26.4 C15.9,26.8 15.6,27.4 15.6,28 C15.6,28.6 15.9,29.2 16.3,29.6 L16.3,29.6 L16.3,29.6 C16.7,30 17.3,30.3 17.9,30.3 C19.2,30.3 20.4,30.8 21.3,31.7 L21.3,31.7 C22.2,32.6 22.7,33.8 22.7,35.1 C22.7,36.4 22.2,37.6 21.3,38.5 C20.4,39.4 19.2,39.9 17.9,39.9 C16.6,39.9 15.4,39.4 14.5,38.5 C13.4,37.6 12.9,36.4 12.9,35.1 Z" id="Shape"></path>
                <path d="M16.9,23 C16.9,22.6 17.3,22.2 17.7,22.2 C18.1,22.2 18.5,22.6 18.5,23 L18.5,41.2 C18.5,41.6 18.1,42 17.7,42 C17.3,42 16.9,41.6 16.9,41.2 L16.9,23 Z" id="Shape"></path>
                <path d="M20.6,13.4 C20.4,13.8 19.9,13.9 19.5,13.7 C19.1,13.5 19,13 19.2,12.6 L24.6,3.2 C23.6,2.7 22.6,2.3 21.6,2 C20.3,1.7 19,1.5 17.6,1.5 C16.2,1.5 14.9,1.7 13.6,2 C12.5,2.3 11.5,2.7 10.6,3.2 L16,12.6 C16.2,13 16.1,13.4 15.7,13.7 C15.3,13.9 14.9,13.8 14.6,13.4 L9,3.3 C8.8,2.9 8.9,2.5 9.3,2.2 C10.6,1.5 11.9,0.9 13.4,0.5 C14.7,0.2 16.2,0 17.7,0 C19.2,0 20.7,0.2 22.1,0.6 C23.5,1 24.9,1.6 26.2,2.3 L26.2,2.3 C26.6,2.5 26.7,3 26.5,3.4 L20.6,13.4 Z" id="Shape"></path>
                <path d="M19.8,13.8 C19.4,13.7 19.1,13.3 19.1,12.9 C19.2,12.5 19.6,12.2 20,12.2 C24.1,12.8 27.8,14.9 30.4,17.9 L30.4,17.9 C33,20.9 34.5,24.8 34.5,29 L34.5,49.2 C34.5,49.6 34.1,50 33.7,50 L33.7,50 L1.6,50 C1.2,50 0.8,49.6 0.8,49.2 L0.8,49.2 L0.8,29 C0.8,25.6 1.8,22.4 3.5,19.8 C5.3,17.1 7.8,14.9 10.9,13.5 C11.3,13.3 11.8,13.5 11.9,13.9 C12.1,14.3 11.9,14.8 11.5,14.9 C8.8,16.1 6.4,18.1 4.8,20.6 C3.2,23 2.3,25.9 2.3,29 L2.3,48.4 L33,48.4 L33,29 C33,25.1 31.6,21.6 29.2,18.9 L29.2,18.9 L29.2,18.9 C26.9,16.2 23.6,14.3 19.8,13.8 L19.8,13.8 Z M15.5,13.8 L15.5,13.8 C15.9,13.8 16.2,13.4 16.2,12.9 C16.2,12.5 15.8,12.2 15.3,12.2 L15.3,12.2 C14.9,12.2 14.6,12.6 14.6,13.1 C14.7,13.6 15.1,13.9 15.5,13.8 Z" id="Shape"></path>
            </g>
        </g>
    </g>
</svg>