<?xml version="1.0" encoding="utf-8"?>
<!-- Generator: Adobe Illustrator 21.1.0, SVG Export Plug-In . SVG Version: 6.00 Build 0)  -->
<svg version="1.1" id="Слой_1" xmlns="http://www.w3.org/2000/svg" xmlns:xlink="http://www.w3.org/1999/xlink" x="0px" y="0px"
	 viewBox="0 0 50 50" style="enable-background:new 0 0 50 50;" xml:space="preserve">
<style type="text/css">
	.st0{fill:#FFFFFF;}
</style>
<g>
	<path class="st0" d="M19.4,27.2H3.4c-1.9,0-3.4,1.5-3.4,3.4v16.1C0,48.5,1.5,50,3.4,50h16.1c1.9,0,3.4-1.5,3.4-3.4V30.6
		C22.8,28.7,21.3,27.2,19.4,27.2z M20.8,46.6c0,0.8-0.6,1.4-1.4,1.4H3.4C2.6,48,2,47.4,2,46.6V30.6c0-0.8,0.6-1.4,1.4-1.4h16.1
		c0.8,0,1.4,0.6,1.4,1.4V46.6z"/>
	<circle class="st0" cx="5.9" cy="33.1" r="2"/>
	<circle class="st0" cx="16.9" cy="33.1" r="2"/>
	<circle class="st0" cx="5.9" cy="44.1" r="2"/>
	<circle class="st0" cx="16.9" cy="44.1" r="2"/>
	<path class="st0" d="M49.7,28.4l-5.3-15.2c-0.6-1.8-2.5-2.7-4.3-2.1L25,16.5c-1.8,0.6-2.7,2.5-2.1,4.3l5.3,15.2
		c0.3,0.8,0.9,1.5,1.7,1.9c0.5,0.2,1,0.3,1.5,0.3c0.4,0,0.7-0.1,1.1-0.2l15.2-5.3C49.4,32.1,50.3,30.2,49.7,28.4z M47,30.8
		l-15.2,5.3c-0.4,0.1-0.7,0.1-1.1-0.1c-0.3-0.2-0.6-0.4-0.7-0.8l-5.3-15.2c-0.3-0.7,0.1-1.5,0.9-1.8L40.8,13C41,13,41.1,13,41.3,13
		c0.6,0,1.1,0.4,1.3,0.9l5.3,15.2C48.1,29.8,47.7,30.6,47,30.8z"/>
	<circle class="st0" cx="29.4" cy="21.2" r="2"/>
	<circle class="st0" cx="39.7" cy="17.6" r="2"/>
	<circle class="st0" cx="33" cy="31.5" r="2"/>
	<circle class="st0" cx="11.4" cy="38.9" r="2"/>
	<circle class="st0" cx="43.3" cy="27.9" r="2"/>
</g>
</svg>
