<?xml version="1.0" encoding="utf-8"?>
<!-- Generator: Adobe Illustrator 21.1.0, SVG Export Plug-In . SVG Version: 6.00 Build 0)  -->
<svg version="1.1" id="Слой_1" xmlns="http://www.w3.org/2000/svg" xmlns:xlink="http://www.w3.org/1999/xlink" x="0px" y="0px"
	 viewBox="0 0 50 50" style="enable-background:new 0 0 50 50;" xml:space="preserve">
<style type="text/css">
	.st0{fill:#FFFFFF;}
</style>
<path class="st0" d="M49.5,30.7c-1.5-2-3-2-6.7-0.1l-2.8,1.7l-4.4,2.7c-1,0.6-3.2,0.7-5.2,0.8c0.4-0.7,0.2-1.6-0.5-2.8
	c-1.3-1.9-3.6-3.1-6-3.1h-3.3c-1.8,0-3.4-0.5-4.8-1.5c-0.9-0.7-2.8-0.9-2.8-0.9c-0.6,0-2.2,0.3-2.2,0.3c-2,0.5-3.9,1.5-5.1,2.3v-1.7
	H0v21.7h5.8v-2.5h10.8c1.7,0,3.4-0.2,5.1-0.3l10.8-1.7c0.4,0,0.8-0.1,1.2-0.2c1-0.2,1.9-0.7,2.8-1.4l12.6-9.9
	C50.1,33.2,50.3,31.7,49.5,30.7z M4.2,48.4H1.7V30.1h2.5V48.4z M48.1,33l-12.7,9.8l-0.1,0.1c-0.6,0.5-1.2,0.8-1.8,0.9h-0.1
	c-0.3,0.1-0.6,0.1-0.9,0.1l-11,1.7c-1.6,0.3-3.3,0.3-4.8,0.3H5.8V32.2c1.3-0.9,3.6-2.3,5.7-2.7c0.1,0,0.2,0,0.3,0
	c0.8-0.1,1.4-0.1,2,0c0.3,0.1,0.6,0.3,0.9,0.5c1.6,1.2,3.6,1.8,5.8,1.8h3.3c1.9,0,3.6,0.8,4.8,2.5c0.2,0.3,0.3,0.7,0.4,0.9
	c0,0,0,0.1,0,0.1c-0.2,0.3-1,0.7-2.4,0.7c-0.2,0-0.4,0.1-0.5,0.2h-7.5c-2.6,0-4.2,1.3-4.2,3.3c0,0.5,0.3,0.8,0.8,0.8
	c0.5,0,0.8-0.3,0.8-0.8c0-0.4,0-1.7,2.5-1.7h8.6c3.9,0.1,7.6,0,9.5-1l7.2-4.4c3.5-1.8,3.8-1.3,4.5-0.3C48.4,32.2,48.4,32.7,48.1,33z
	"/>
<path class="st0" d="M22.3,13c2.5,0.6,5-1,5.6-3.5s-1-5-3.5-5.6s-5,1-5.6,3.5C18.2,9.9,19.8,12.4,22.3,13z M23.8,6.1
	c1.3,0.3,2.1,1.5,1.8,2.8c-0.3,1.3-1.5,2.1-2.8,1.8c-1.3-0.3-2.1-1.5-1.8-2.8C21.3,6.6,22.6,5.8,23.8,6.1z"/>
<path class="st0" d="M35,20.7c-2.5-0.6-5,1-5.6,3.5c-0.6,2.5,1,5,3.5,5.6c2.5,0.6,5-1,5.6-3.5C39.1,23.7,37.5,21.2,35,20.7z
	 M33.4,27.5c-1.3-0.3-2.1-1.5-1.8-2.8c0.3-1.3,1.5-2.1,2.8-1.8c1.3,0.3,2.1,1.5,1.8,2.8C35.9,27,34.7,27.8,33.4,27.5z"/>
<path class="st0" d="M15.8,25.9c0.3,0.1,0.6,0,0.9-0.2l25.2-16c0.6-0.4,0.7-1,0.4-1.6c-0.4-0.6-1-0.7-1.6-0.4l-25.2,16
	c-0.6,0.4-0.7,1-0.4,1.6C15.2,25.7,15.4,25.9,15.8,25.9z"/>
</svg>
