<?xml version="1.0" encoding="utf-8"?>
<!-- Generator: Adobe Illustrator 16.0.0, SVG Export Plug-In . SVG Version: 6.00 Build 0)  -->
<!DOCTYPE svg PUBLIC "-//W3C//DTD SVG 1.1//EN" "http://www.w3.org/Graphics/SVG/1.1/DTD/svg11.dtd">
<svg version="1.1" id="Layer_1" xmlns="http://www.w3.org/2000/svg" xmlns:xlink="http://www.w3.org/1999/xlink" x="0px" y="0px"
	 width="47.333px" height="49.667px" viewBox="0 0 47.333 49.667" enable-background="new 0 0 47.333 49.667" xml:space="preserve">
<path fill="#50B84B" d="M23.667,2.971c-12.074,0-21.862,9.788-21.862,21.862c0,12.076,9.788,21.862,21.862,21.862
	c12.076,0,21.862-9.786,21.862-21.862C45.529,12.759,35.743,2.971,23.667,2.971z M23.667,45.321
	c-11.315,0-20.487-9.171-20.487-20.487c0-11.315,9.172-20.487,20.487-20.487c11.317,0,20.487,9.172,20.487,20.487
	C44.154,36.15,34.983,45.321,23.667,45.321z"/>
<g>
	<path fill="#50B84B" d="M32.248,24.412c1.418,1.308,2.319,3.171,2.324,5.24l0.005,0.396c0.02,3.943-3.176,7.148-7.119,7.148h-0.171
		l0.009,2.108h-4.594l-0.01-2.108h-1.879l0.01,2.108H16.23l-0.01-2.108h-1.069h-2.278l-0.022-4.59h2.275l-0.024-5.514L15.078,22.5
		l-0.024-4.967h-2.275l-0.022-4.594h2.275h1.072l-0.012-2.578h4.589l0.014,2.578h1.881l-0.012-2.578h4.592l0.009,2.603
		c3.606,0.216,6.488,3.21,6.508,6.864v0.377C33.677,21.79,33.144,23.248,32.248,24.412z M29.988,30.048l-0.005-0.396
		c-0.005-1.414-1.16-2.559-2.573-2.559h-0.593h-7.125l0.026,5.514h0.976h6.745C28.847,32.607,29.993,31.458,29.988,30.048
		 M19.645,17.533l0.024,4.967h7.124c1.267,0,2.294-1.027,2.29-2.295l-0.005-0.377c-0.004-1.268-1.042-2.295-2.309-2.295h-6.147
		H19.645"/>
</g>
</svg>
