<?xml version="1.0" encoding="utf-8"?>
<!-- Generator: Adobe Illustrator 16.0.0, SVG Export Plug-In . SVG Version: 6.00 Build 0)  -->
<!DOCTYPE svg PUBLIC "-//W3C//DTD SVG 1.1//EN" "http://www.w3.org/Graphics/SVG/1.1/DTD/svg11.dtd">
<svg version="1.1" id="Layer_1" xmlns="http://www.w3.org/2000/svg" xmlns:xlink="http://www.w3.org/1999/xlink" x="0px" y="0px"
	 width="153.634px" height="176.859px" viewBox="0 0 153.634 176.859" enable-background="new 0 0 153.634 176.859"
	 xml:space="preserve">
<g>
	<path fill="#FFFFFF" d="M116.798,91.148c7.152,6.59,11.687,15.981,11.738,26.423l0.01,2.011
		c0.097,19.878-16.004,36.057-35.89,36.057h-0.88l0.052,10.639H68.674l-0.052-10.639h-9.49l0.052,10.639H36.029l-0.052-10.639
		h-5.405H19.09l-0.113-23.154H30.46l-0.136-27.814l-0.113-23.164l-0.122-25.049H18.606l-0.113-23.163h11.482h5.405l-0.063-13.019
		h23.154l0.063,13.019h9.49l-0.063-13.019h23.154l0.063,13.127c18.178,1.104,32.706,16.188,32.796,34.628l0.009,1.903
		C124.023,77.923,121.321,85.268,116.798,91.148z M105.391,119.582l-0.01-2.011c-0.034-7.12-5.854-12.901-12.973-12.901h-2.99
		H53.479l0.136,27.814h4.92h34.01C99.663,132.484,105.426,126.693,105.391,119.582 M53.243,56.457l0.123,25.049h35.939
		c6.384,0,11.557-5.189,11.525-11.572l-0.009-1.903c-0.031-6.384-5.255-11.573-11.639-11.573H58.164H53.243"/>
</g>
</svg>
