<?xml version="1.0" encoding="utf-8"?>
<!-- Generator: Adobe Illustrator 16.0.0, SVG Export Plug-In . SVG Version: 6.00 Build 0)  -->
<!DOCTYPE svg PUBLIC "-//W3C//DTD SVG 1.1//EN" "http://www.w3.org/Graphics/SVG/1.1/DTD/svg11.dtd">
<svg version="1.1" id="Layer_1" xmlns="http://www.w3.org/2000/svg" xmlns:xlink="http://www.w3.org/1999/xlink" x="0px" y="0px"
	 width="47.333px" height="49.667px" viewBox="0 0 47.333 49.667" enable-background="new 0 0 47.333 49.667" xml:space="preserve">
<circle fill="#50B84B" cx="23.667" cy="24.833" r="21.862"/>
<g>
	<path fill="#FFFFFF" d="M30.271,24.509c1.092,1.006,1.785,2.44,1.789,4.033l0.004,0.305c0.015,3.035-2.444,5.502-5.479,5.502
		h-0.132l0.007,1.623h-3.536l-0.008-1.623h-1.446l0.007,1.623h-3.536l-0.008-1.623h-0.823h-1.753l-0.017-3.532h1.751l-0.019-4.244
		l-0.019-3.535l-0.019-3.823h-1.751l-0.017-3.535h1.751h0.825l-0.009-1.984h3.532l0.011,1.984h1.448l-0.009-1.984h3.534l0.007,2.003
		c2.776,0.166,4.994,2.471,5.009,5.283v0.29C31.371,22.491,30.96,23.613,30.271,24.509z M28.532,28.847l-0.004-0.305
		c-0.004-1.089-0.893-1.97-1.98-1.97h-0.456h-5.484l0.021,4.244h0.751h5.191C27.654,30.817,28.536,29.932,28.532,28.847
		 M20.571,19.214l0.019,3.823h5.483c0.975,0,1.766-0.791,1.762-1.767l-0.004-0.29c-0.003-0.976-0.802-1.767-1.777-1.767h-4.731
		H20.571"/>
</g>
</svg>
