<?xml version="1.0" encoding="utf-8"?>
<!-- Generator: Adobe Illustrator 16.0.0, SVG Export Plug-In . SVG Version: 6.00 Build 0)  -->
<!DOCTYPE svg PUBLIC "-//W3C//DTD SVG 1.1//EN" "http://www.w3.org/Graphics/SVG/1.1/DTD/svg11.dtd">
<svg version="1.1" id="Layer_1" xmlns="http://www.w3.org/2000/svg" xmlns:xlink="http://www.w3.org/1999/xlink" x="0px" y="0px"
	 width="31.7px" height="39.7px" viewBox="0 0 31.7 39.7" enable-background="new 0 0 31.7 39.7" xml:space="preserve">
<path fill="#FFFFFF" d="M31.299,5.1C31.1,5,31,5,30.799,5h-6.1c-1.1-3-3.9-5-7.1-5c-3.1,0-5.8,1.8-7,4.7c-0.2,0.1-0.3,0.2-0.4,0.3
	H3.8C3.6,5,3.5,5.1,3.3,5.2l-3,2.6L0.2,7.9L0.1,8v30.799c0,0.4,0.4,0.801,0.8,0.801h25.899c0.101,0,0.201,0,0.301-0.1
	c0.1,0,0.199-0.101,0.3-0.201l4.2-4.199c0.1-0.1,0.199-0.4,0.199-0.6V5.8C31.7,5.5,31.5,5.2,31.299,5.1z M26.5,7.6h-4.9L21,6.5H28.2
	L26.5,7.6z M10.8,6.6h8.1c0.3,0.3,0.601,0.7,0.899,1.1h-10C10.1,7.2,10.4,6.9,10.8,6.6z M14.4,5h0.8H14.4z M17.6,1.6
	C19.9,1.6,22,2.9,23,5h-3.5C18.2,4,16.6,3.4,14.9,3.4c-0.6,0-1.1,0.1-1.6,0.2C14.3,2.3,15.9,1.6,17.6,1.6z M4.1,6.6h4.5L8,7.6H2.9
	L4.1,6.6z M1.6,9.2h5.9c-0.1,0.6-0.2,1.1-0.2,1.7c0,0.4,0.4,0.8,0.8,0.8s0.8-0.4,0.8-0.8c0-0.6,0.1-1.2,0.3-1.7h11.4
	c0.199,0.5,0.3,1.1,0.3,1.7c0,0.4,0.399,0.8,0.8,0.8s0.801-0.4,0.801-0.8c0-0.6-0.101-1.2-0.201-1.7H26v28.9H1.6V9.2z M30.1,34.4
	L27.5,37V8.9l2.6-1.6V34.4z M8.8,35.7H5c-0.4,0-0.8-0.4-0.8-0.8v-4.2c0-0.4,0.4-0.8,0.8-0.8s0.8,0.399,0.8,0.8v3.4h3.1
	c0.4,0,0.8,0.4,0.8,0.8C9.6,35.4,9.2,35.7,8.8,35.7z"/>
</svg>
