<?xml version="1.0" encoding="utf-8"?>
<!-- Generator: Adobe Illustrator 16.0.0, SVG Export Plug-In . SVG Version: 6.00 Build 0)  -->
<!DOCTYPE svg PUBLIC "-//W3C//DTD SVG 1.1//EN" "http://www.w3.org/Graphics/SVG/1.1/DTD/svg11.dtd">
<svg version="1.1" id="Layer_1" xmlns="http://www.w3.org/2000/svg" xmlns:xlink="http://www.w3.org/1999/xlink" x="0px" y="0px"
	 width="34.1px" height="44.1px" viewBox="0 0 34.1 44.1" enable-background="new 0 0 34.1 44.1" xml:space="preserve">
<path fill="#FFFFFF" d="M2.2,19.7h0.3C3.2,19.4,19.4,13.4,28.9,2.9v1.9c0,0.4,0.301,0.8,0.801,0.8c0.399,0,0.8-0.3,0.8-0.8l0.1-4
	V0.5c0,0,0-0.101-0.1-0.101L30.4,0.3h-0.1l-0.1-0.1H29.9L25.7,0C25.3,0,24.9,0.3,24.9,0.8c0,0.4,0.301,0.8,0.801,0.8h2.5
	C18.8,12,2.2,18.2,2,18.2c-0.4,0.1-0.601,0.6-0.5,1C1.6,19.5,1.9,19.7,2.2,19.7z M33.4,42.6H32.5L32.9,12.2
	c0-0.4-0.3-0.801-0.8-0.801l-6.8-0.1c-0.2,0-0.4,0.1-0.5,0.2c-0.1,0.1-0.2,0.3-0.2,0.5L24.2,42.4H21.1L21.4,21.5
	c0-0.4-0.3-0.8-0.8-0.8L13.8,20.6c-0.2,0-0.4,0.101-0.5,0.2s-0.2,0.3-0.2,0.5l-0.3,20.9H9.7L9.9,29.1c0-0.399-0.3-0.8-0.8-0.8
	l-6.8-0.1c-0.2,0-0.4,0.1-0.5,0.199C1.7,28.5,1.6,28.7,1.6,28.9L1.4,42.2H0.8C0.4,42.2,0,42.5,0,43c0,0.399,0.3,0.8,0.8,0.8L13.6,44
	l6.8,0.1L25,44.2l6.8,0.1h1.6c0.4,0,0.801-0.3,0.801-0.8C34.1,42.9,33.8,42.6,33.4,42.6z M3.1,29.8l5.3,0.1L8.2,42.3L2.9,42.2
	L3.1,29.8z M26.1,12.8l5.3,0.1L31,42.6l-5.3-0.1L26.1,12.8z M14.6,22.2l5.3,0.1l-0.3,20.1l-5.3-0.1L14.6,22.2z"/>
</svg>
