<?xml version="1.0" encoding="utf-8"?>
<!-- Generator: Adobe Illustrator 16.0.0, SVG Export Plug-In . SVG Version: 6.00 Build 0)  -->
<!DOCTYPE svg PUBLIC "-//W3C//DTD SVG 1.1//EN" "http://www.w3.org/Graphics/SVG/1.1/DTD/svg11.dtd">
<svg version="1.1" id="Layer_1" xmlns="http://www.w3.org/2000/svg" xmlns:xlink="http://www.w3.org/1999/xlink" x="0px" y="0px"
	 width="40px" height="32.9px" viewBox="0 0 40 32.9" enable-background="new 0 0 40 32.9" xml:space="preserve">
<path fill="#FFFFFF" d="M36.4,2.8h-7.7C28.3,1.2,26.9,0,25.2,0H14.8c-1.7,0-3.2,1.2-3.5,2.8H3.6C1.6,2.8,0,4.4,0,6.4V29.3
	c0,2,1.6,3.601,3.6,3.601h32.8c2,0,3.6-1.601,3.6-3.601V6.4C40,4.4,38.4,2.8,36.4,2.8z M14.8,1.5h10.4C26.1,1.5,26.8,2,27.1,2.8
	H12.9C13.2,2.1,13.9,1.5,14.8,1.5z M3.6,4.4h32.8c1.1,0,2.1,0.899,2.1,2.1V15H25.6c-0.399-1.6-1.8-2.8-3.5-2.8H18
	c-1.7,0-3.2,1.2-3.5,2.8h-13V6.4C1.5,5.3,2.5,4.4,3.6,4.4z M23.6,16.5H24c-0.3,0.8-1,1.3-1.9,1.3H18c-0.9,0-1.6-0.5-1.9-1.3h0.5
	c0.4,0,0.8-0.3,0.8-0.8s-0.3-0.8-0.8-0.8H16c0.3-0.8,1-1.3,1.9-1.3H22c0.9,0,1.6,0.5,1.9,1.3h-0.4c-0.4,0-0.8,0.3-0.8,0.8
	S23.2,16.5,23.6,16.5z M36.4,31.3H3.6c-1.1,0-2.1-0.899-2.1-2.1V16.5h12.9c0.4,1.601,1.8,2.8,3.5,2.8H22c1.7,0,3.2-1.199,3.5-2.8
	h12.9v12.8C38.5,30.4,37.5,31.3,36.4,31.3z M35.2,22.4c-0.4,0-0.8,0.3-0.8,0.8v4.2H4.8c-0.4,0-0.8,0.3-0.8,0.8S4.3,29,4.8,29h30.4
	c0.399,0,0.8-0.3,0.8-0.8v-5C36,22.7,35.6,22.4,35.2,22.4z"/>
</svg>
