<?xml version="1.0" encoding="utf-8"?>
<!-- Generator: Adobe Illustrator 16.0.0, SVG Export Plug-In . SVG Version: 6.00 Build 0)  -->
<!DOCTYPE svg PUBLIC "-//W3C//DTD SVG 1.1//EN" "http://www.w3.org/Graphics/SVG/1.1/DTD/svg11.dtd">
<svg version="1.1" id="Layer_1" xmlns="http://www.w3.org/2000/svg" xmlns:xlink="http://www.w3.org/1999/xlink" x="0px" y="0px"
	 width="30.5px" height="41px" viewBox="0 0 30.5 41" enable-background="new 0 0 30.5 41" xml:space="preserve">
<path fill="#FFFFFF" d="M22.8,0H7.7C3.5,0,0,3.5,0,7.7v25.5c0,0.399,0.3,0.7,0.7,0.7h3.9l-3,4.199L0.4,39.7c-0.2,0.3-0.2,0.8,0.2,1
	C0.9,40.9,1,41,1.2,41c0.2,0,0.5-0.1,0.6-0.3l0.9-1.3h25.1l0.9,1.3c0.1,0.2,0.399,0.3,0.6,0.3c0.101,0,0.3,0,0.4-0.1
	c0.3-0.2,0.399-0.7,0.2-1L25.8,34h3.9c0.399,0,0.7-0.3,0.7-0.7V7.7C30.5,3.5,27.1,0,22.8,0z M19.1,11.4c-0.3-0.3-0.8-0.2-1.1,0.1
	l-6.5,7.4H9.1l2.3-2.6c0.3-0.3,0.2-0.8-0.1-1.1c-0.3-0.2-0.7-0.2-1,0.1l-3.1,3.6H1.5v-7.8H29v7.8H13.5l5.6-6.4
	C19.4,12.2,19.4,11.7,19.1,11.4z M7.7,1.5h15.1c3.4,0,6.2,2.8,6.2,6.2v1.9H1.5V7.7C1.5,4.3,4.3,1.5,7.7,1.5z M3.8,37.8l1.1-1.6h20.8
	l1.1,1.6H3.8z M24.1,34l0.5,0.8H5.9L6.5,34v-0.1L24.1,34z M1.5,32.4v-12H29v12.1H1.5V32.4z M7.5,23.2c-1.7,0-3.1,1.399-3.1,3.1
	S5.8,29.4,7.5,29.4s3.1-1.4,3.1-3.101S9.2,23.2,7.5,23.2z M7.5,27.9c-0.9,0-1.6-0.7-1.6-1.601c0-0.899,0.7-1.6,1.6-1.6
	s1.6,0.7,1.6,1.6C9.1,27.2,8.4,27.9,7.5,27.9z M23,23.2c-1.7,0-3.1,1.399-3.1,3.1S21.3,29.4,23,29.4s3.1-1.4,3.1-3.101
	S24.7,23.2,23,23.2z M23,27.9c-0.9,0-1.6-0.7-1.6-1.601c0-0.899,0.699-1.6,1.6-1.6s1.6,0.7,1.6,1.6C24.6,27.2,23.9,27.9,23,27.9z
	 M10.8,5.4h8.8c0.4,0,0.7-0.3,0.7-0.7C20.3,4.3,20,4,19.6,4h-8.8c-0.4,0-0.7,0.3-0.7,0.7C10.1,5.1,10.4,5.4,10.8,5.4z"/>
</svg>
