<?xml version="1.0" encoding="utf-8"?>
<!-- Generator: Adobe Illustrator 16.0.0, SVG Export Plug-In . SVG Version: 6.00 Build 0)  -->
<!DOCTYPE svg PUBLIC "-//W3C//DTD SVG 1.1//EN" "http://www.w3.org/Graphics/SVG/1.1/DTD/svg11.dtd">
<svg version="1.1" id="Layer_1" xmlns="http://www.w3.org/2000/svg" xmlns:xlink="http://www.w3.org/1999/xlink" x="0px" y="0px"
	 width="43.8px" height="32.9px" viewBox="0 0 43.8 32.9" enable-background="new 0 0 43.8 32.9" xml:space="preserve">
<path fill="#FFFFFF" d="M9.6,18.3c0,0.2,0.1,0.301,0.2,0.5l5.3,5.2c0.1,0.101,0.3,0.2,0.5,0.2c0.2,0,0.3-0.1,0.5-0.2
	c0.3-0.3,0.2-0.7,0-0.899L11.3,18.3l4.8-4.8c0.3-0.3,0.3-0.7,0-0.899c-0.3-0.301-0.7-0.301-0.9,0L9.9,17.8C9.7,18,9.6,18.1,9.6,18.3
	z M25.3,24c0.1,0.101,0.3,0.2,0.5,0.2c0.199,0,0.3-0.1,0.5-0.2l5.3-5.2c0.101-0.1,0.2-0.3,0.2-0.5c0-0.199-0.1-0.3-0.2-0.5
	L26.3,12.6C26,12.3,25.6,12.3,25.4,12.6c-0.3,0.3-0.199,0.699,0,0.899l4.801,4.8L25.4,23.1C25,23.3,25,23.7,25.3,24z M18.5,26.5h0.2
	c0.3,0,0.6-0.2,0.6-0.5L23,11.3c0.101-0.3-0.1-0.699-0.5-0.8C22.2,10.4,21.8,10.6,21.7,11L18,25.8C18,26.1,18.2,26.4,18.5,26.5z
	 M43.201,2.6H17.8L16.4,0.3C16.3,0.1,16.1,0,15.8,0H3.2C2.8,0,2.5,0.3,2.5,0.6V2.5H0.6C0.3,2.5,0,2.8,0,3.2v29
	c0,0.4,0.3,0.6,0.6,0.6h40c0.399,0,0.601-0.3,0.601-0.6v-1.9H43.1c0.399,0,0.601-0.3,0.601-0.6V3.2C43.8,2.9,43.5,2.6,43.201,2.6z
	 M40,31.6H1.3V3.8h11.6L14.3,6.1c0.1,0.199,0.3,0.3,0.5,0.3H40V31.6z M42.5,29H41.3V5.8c0-0.399-0.301-0.6-0.6-0.6H15.3l-1.4-2.3
	c-0.1-0.2-0.3-0.3-0.5-0.3H3.8V1.3h11.6L16.8,3.6c0.1,0.199,0.3,0.3,0.5,0.3h25.1V29H42.5z"/>
</svg>
