<?xml version="1.0" encoding="utf-8"?>
<!-- Generator: Adobe Illustrator 16.0.0, SVG Export Plug-In . SVG Version: 6.00 Build 0)  -->
<!DOCTYPE svg PUBLIC "-//W3C//DTD SVG 1.1//EN" "http://www.w3.org/Graphics/SVG/1.1/DTD/svg11.dtd">
<svg version="1.1" id="Layer_1" xmlns="http://www.w3.org/2000/svg" xmlns:xlink="http://www.w3.org/1999/xlink" x="0px" y="0px"
	 width="54.2px" height="54.2px" viewBox="0 0 54.2 54.2" enable-background="new 0 0 54.2 54.2" xml:space="preserve">
<path fill="#FCFCFC" d="M27.1,54.2C12.2,54.2,0,42.1,0,27.1S12.2,0,27.1,0C34.6,0,41.9,3.2,47,8.7L45.6,10
	c-4.801-5.1-11.5-8.1-18.5-8.1C13.2,1.9,1.9,13.2,1.9,27.1c0,13.9,11.3,25.199,25.2,25.199c7,0,13.699-2.899,18.5-8L47,45.6
	C41.799,51.1,34.6,54.2,27.1,54.2z M36.7,28.299H26.1V12.1H28v14.3H36.7V28.299z"/>
</svg>
