<?xml version="1.0" encoding="utf-8"?>
<!-- Generator: Adobe Illustrator 16.0.0, SVG Export Plug-In . SVG Version: 6.00 Build 0)  -->
<!DOCTYPE svg PUBLIC "-//W3C//DTD SVG 1.1//EN" "http://www.w3.org/Graphics/SVG/1.1/DTD/svg11.dtd">
<svg version="1.1" id="Layer_1" xmlns="http://www.w3.org/2000/svg" xmlns:xlink="http://www.w3.org/1999/xlink" x="0px" y="0px"
	 width="100px" height="100px" viewBox="0 0 100 100" enable-background="new 0 0 100 100" xml:space="preserve">
<g id="Page-1_1_">
	<polygon id="Stroke-2_1_" fill="none" stroke="#CCCCCC" stroke-width="2" stroke-linecap="round" stroke-linejoin="round" points="
		89.838,53.388 10.162,53.388 37.661,29.605 62.338,29.605 	"/>
	<path id="Stroke-4_1_" fill="none" stroke="#CCCCCC" stroke-width="2" stroke-linecap="round" stroke-linejoin="round" d="
		M30.26,53.184l14.35-23.452"/>
	<path id="Stroke-5_1_" fill="none" stroke="#CCCCCC" stroke-width="2" stroke-linecap="round" stroke-linejoin="round" d="
		M69.023,53.151L55.346,29.828"/>
	<path id="Stroke-6_1_" fill="none" stroke="#CCCCCC" stroke-width="2" stroke-linecap="round" stroke-linejoin="round" d="
		M51.023,53.151l-0.678-23.323"/>
	<path id="Stroke-7_1_" fill="none" stroke="#CCCCCC" stroke-width="2" stroke-linecap="round" stroke-linejoin="round" d="
		M31.749,35.139h36.265"/>
	<path id="Stroke-8_1_" fill="none" stroke="#CCCCCC" stroke-width="2" stroke-linecap="round" stroke-linejoin="round" d="
		M22.647,43.201h54.662"/>
	<g id="Group-27" transform="translate(11.000000, 0.834700)">
		<path id="Stroke-9_1_" fill="none" stroke="#CCCCCC" stroke-width="2" stroke-linecap="round" stroke-linejoin="round" d="
			M30.797,28.616c-0.649-1.224-1.017-2.62-1.017-4.103c0-4.841,3.924-8.766,8.766-8.766c4.841,0,8.767,3.925,8.767,8.766
			c0,1.415-0.336,2.751-0.93,3.934"/>
		<path id="Fill-11_1_" fill="#FFFFFF" stroke="#CCCCCC" stroke-miterlimit="10" d="M66.994,42.205L59.857,17.56l-6.922,24.645
			h0.207c0.133,1.193,3.121,2.147,6.801,2.147c3.678,0,6.666-0.954,6.799-2.147H66.994z"/>
		<path id="Stroke-13_1_" fill="none" stroke="#CCCCCC" stroke-width="2" stroke-linecap="round" stroke-linejoin="round" d="
			M66.994,42.205L59.857,17.56l-6.922,24.645h0.207c0.133,1.193,3.121,2.147,6.801,2.147c3.678,0,6.666-0.954,6.799-2.147H66.994z"
			/>
		<path id="Fill-15_1_" fill="#FFFFFF" stroke="#CCCCCC" stroke-miterlimit="10" d="M29.41,33.89l-3.868-12.47l-3.751,12.47h0.111
			c0.073,0.604,1.693,1.086,3.686,1.086s3.614-0.482,3.686-1.086H29.41z"/>
		<path id="Stroke-17_1_" fill="none" stroke="#CCCCCC" stroke-width="2" stroke-linecap="round" stroke-linejoin="round" d="
			M29.41,33.89l-3.868-12.47l-3.751,12.47h0.111c0.073,0.604,1.693,1.086,3.686,1.086s3.614-0.482,3.686-1.086H29.41z"/>
		<g id="Group-26" transform="translate(0.000000, 46.000000)">
			<path id="Fill-19_1_" fill="#FFFFFF" d="M42.893,24.602l12.719-3.08c1.26-0.311,2.535,0.456,2.934,1.764
				c0.396,1.299-0.199,2.703-1.377,3.248l-20.047,9.357c-1.841,0.803-3.887,0.911-5.794,0.304l-16.398-5.97H9.781"/>
			<path id="Stroke-21_1_" fill="none" stroke="#6FC067" stroke-width="2" stroke-linecap="round" stroke-linejoin="round" d="
				M42.893,24.602l12.719-3.08c1.26-0.311,2.535,0.456,2.934,1.764c0.396,1.299-0.199,2.703-1.377,3.248l-20.047,9.357
				c-1.841,0.803-3.887,0.911-5.794,0.304l-16.398-5.97H9.781"/>
			<path id="Fill-23" fill="#FFFFFF" d="M9.78,16.58h10.083c1.607,0,3.197,0.33,4.671,0.972l7.369,3.202h7.947
				c1.681,0,3.042,1.361,3.042,3.042c0,1.68-1.361,3.042-3.042,3.042H26.278"/>
			<path id="Stroke-25" fill="none" stroke="#6FC067" stroke-width="2" stroke-linecap="round" stroke-linejoin="round" d="
				M9.78,16.58h10.083c1.607,0,3.197,0.33,4.671,0.972l7.369,3.202h7.947c1.681,0,3.042,1.361,3.042,3.042
				c0,1.68-1.361,3.042-3.042,3.042H26.278"/>
		</g>
	</g>
</g>
</svg>
