<?xml version="1.0" encoding="utf-8"?>
<!-- Generator: Adobe Illustrator 16.0.0, SVG Export Plug-In . SVG Version: 6.00 Build 0)  -->
<!DOCTYPE svg PUBLIC "-//W3C//DTD SVG 1.1//EN" "http://www.w3.org/Graphics/SVG/1.1/DTD/svg11.dtd">
<svg version="1.1" id="Layer_1" xmlns="http://www.w3.org/2000/svg" xmlns:xlink="http://www.w3.org/1999/xlink" x="0px" y="0px"
	 width="100px" height="100px" viewBox="0 0 100 100" enable-background="new 0 0 100 100" xml:space="preserve">
<g>
	<g id="Page-1_1_">
		<path id="Stroke-2_2_" fill="none" stroke="#CCCCCC" stroke-width="2" stroke-linecap="round" stroke-linejoin="round" d="
			M10.162,53.388"/>
	</g>
	<g id="Page-1_2_" transform="translate(194.000000, 0.000000)">
		<g id="Group-13" transform="translate(0.000000, 21.333300)">
			<polygon id="Stroke-1" fill="none" stroke="#CCCCCC" stroke-width="2" stroke-linecap="round" stroke-linejoin="round" points="
				-151.698,27.834 -170.198,19.333 -188.573,27.646 -188.636,50.958 -170.073,59.333 -151.823,50.958 			"/>
			<polyline id="Stroke-3" fill="none" stroke="#CCCCCC" stroke-width="2" stroke-linecap="round" stroke-linejoin="round" points="
				-188.345,27.978 -170.095,35.977 -152.177,28.312 			"/>
			<path id="Stroke-5_2_" fill="none" stroke="#CCCCCC" stroke-width="2" stroke-linecap="round" stroke-linejoin="round" d="
				M-170.095,35.811v23"/>
			
				<polygon id="Stroke-7_2_" fill="none" stroke="#CCCCCC" stroke-width="2" stroke-linecap="round" stroke-linejoin="round" points="
				-99.364,27.834 -117.864,19.333 -136.239,27.646 -136.303,50.958 -117.739,59.333 -99.489,50.958 			"/>
			
				<polyline id="Stroke-9_2_" fill="none" stroke="#CCCCCC" stroke-width="2" stroke-linecap="round" stroke-linejoin="round" points="
				-136.011,27.978 -117.761,35.977 -99.844,28.312 			"/>
			<path id="Stroke-11" fill="none" stroke="#CCCCCC" stroke-width="2" stroke-linecap="round" stroke-linejoin="round" d="
				M-117.761,35.811v23"/>
		</g>
		<polyline id="Stroke-14" fill="none" stroke="#51B848" stroke-width="2" stroke-linecap="round" stroke-linejoin="round" points="
			-162.011,27.979 -143.761,35.979 -125.844,28.312 		"/>
		<polyline id="Stroke-15" fill="none" stroke="#51B848" stroke-width="2" stroke-linecap="round" stroke-linejoin="round" points="
			-154.761,54.479 -143.739,59.332 -133.489,54.957 		"/>
		<polyline id="Stroke-16" fill="none" stroke="#51B848" stroke-width="2" stroke-linecap="round" stroke-linejoin="round" points="
			-125.489,51.167 -125.364,27.833 -143.864,19.333 -162.239,27.646 -162.303,50.958 		"/>
		<path id="Stroke-18" fill="none" stroke="#51B848" stroke-width="2" stroke-linecap="round" stroke-linejoin="round" d="
			M-143.761,35.812v22.999"/>
	</g>
</g>
</svg>
