<?xml version="1.0" encoding="utf-8"?>
<!-- Generator: Adobe Illustrator 16.0.0, SVG Export Plug-In . SVG Version: 6.00 Build 0)  -->
<!DOCTYPE svg PUBLIC "-//W3C//DTD SVG 1.1//EN" "http://www.w3.org/Graphics/SVG/1.1/DTD/svg11.dtd">
<svg version="1.1" id="Layer_1" xmlns="http://www.w3.org/2000/svg" xmlns:xlink="http://www.w3.org/1999/xlink" x="0px" y="0px"
	 width="100px" height="100px" viewBox="0 0 100 100" enable-background="new 0 0 100 100" xml:space="preserve">
<g id="Page-1" transform="translate(97.000000, 0.000000)">
	<polygon id="Fill-1" fill="#FFFFFF" stroke="#CCCCCC" stroke-miterlimit="10" points="-59.338,33.551 -86.838,57.332 
		-7.162,57.332 -34.662,33.551 	"/>
	<polygon id="Stroke-2" fill="none" stroke="#CCCCCC" stroke-width="2" stroke-linecap="round" stroke-linejoin="round" points="
		-7.162,57.332 -86.837,57.332 -59.338,33.55 -34.662,33.55 	"/>
	<path id="Stroke-4" fill="none" stroke="#CCCCCC" stroke-width="2" stroke-linecap="round" stroke-linejoin="round" d="
		M-66.739,57.128l14.351-23.451"/>
	<path id="Stroke-5" fill="none" stroke="#CCCCCC" stroke-width="2" stroke-linecap="round" stroke-linejoin="round" d="
		M-27.977,57.096l-13.678-23.323"/>
	<path id="Stroke-6" fill="none" stroke="#CCCCCC" stroke-width="2" stroke-linecap="round" stroke-linejoin="round" d="
		M-45.977,57.096l-0.678-23.323"/>
	<path id="Stroke-7" fill="none" stroke="#CCCCCC" stroke-width="2" stroke-linecap="round" stroke-linejoin="round" d="
		M-65.25,39.083h36.266"/>
	<path id="Stroke-8" fill="none" stroke="#CCCCCC" stroke-width="2" stroke-linecap="round" stroke-linejoin="round" d="
		M-74.353,47.146h54.661"/>
	<g id="Group-23" transform="translate(1.000000, 0.945700)">
		<path id="Stroke-9" fill="none" stroke="#CCCCCC" stroke-width="2" stroke-linecap="round" stroke-linejoin="round" d="
			M-56.203,32.45c-0.648-1.224-1.017-2.62-1.017-4.103c0-4.841,3.925-8.766,8.767-8.766c4.84,0,8.766,3.925,8.766,8.766
			c0,1.415-0.334,2.751-0.93,3.934"/>
		<path id="Fill-11" fill="#FFFFFF" stroke="#CCCCCC" stroke-miterlimit="10" d="M-20.006,46.039l-7.137-24.645l-6.92,24.645h0.205
			c0.133,1.193,3.123,2.147,6.801,2.147s6.666-0.954,6.799-2.147H-20.006z"/>
		<path id="Stroke-13" fill="none" stroke="#CCCCCC" stroke-width="2" stroke-linecap="round" stroke-linejoin="round" d="
			M-20.006,46.039l-7.137-24.645l-6.92,24.645h0.205c0.133,1.193,3.123,2.147,6.801,2.147s6.666-0.954,6.799-2.147H-20.006z"/>
		<path id="Fill-15" fill="#FFFFFF" stroke="#CCCCCC" stroke-miterlimit="10" d="M-57.59,37.724l-3.867-12.47l-3.751,12.47h0.11
			c0.073,0.604,1.693,1.086,3.687,1.086s3.614-0.482,3.686-1.086H-57.59z"/>
		<path id="Stroke-17" fill="none" stroke="#CCCCCC" stroke-width="2" stroke-linecap="round" stroke-linejoin="round" d="
			M-57.59,37.724l-3.867-12.47l-3.751,12.47h0.11c0.073,0.604,1.693,1.086,3.687,1.086s3.614-0.482,3.686-1.086H-57.59z"/>
		<path id="Fill-19" fill="#FFFFFF" stroke="#CCCCCC" stroke-miterlimit="10" d="M-76.652,68.084c1.248,0,2.26,1.012,2.26,2.26
			c0,1.249-1.012,2.26-2.26,2.26s-2.26-1.011-2.26-2.26C-78.912,69.095-77.9,68.084-76.652,68.084 M-76.496,78.527
			c5.896,0,10.677-4.78,10.677-10.678c0-4.607-2.924-8.521-7.014-10.019v-4.556l-2.494-2.338l2.494-2.183V45.95l-2.494-1.715
			l2.494-1.715v-2.65L-75.327,38l2.494-1.87v-4.521l-5.301-4.988l-2.338,4.988v26.336c-3.927,1.578-6.703,5.414-6.703,9.904
			C-87.175,73.747-82.394,78.527-76.496,78.527"/>
		<path id="Stroke-21" fill="none" stroke="#6FC067" stroke-width="2" stroke-linecap="round" stroke-linejoin="round" d="
			M-76.652,68.084c1.248,0,2.26,1.012,2.26,2.26c0,1.249-1.012,2.26-2.26,2.26s-2.26-1.011-2.26-2.26
			C-78.912,69.095-77.9,68.084-76.652,68.084z M-76.496,78.527c5.896,0,10.677-4.78,10.677-10.678c0-4.607-2.924-8.521-7.014-10.019
			v-4.556l-2.494-2.338l2.494-2.183V45.95l-2.494-1.715l2.494-1.715v-2.65L-75.327,38l2.494-1.87v-4.521l-5.301-4.988l-2.338,4.988
			v26.336c-3.927,1.578-6.703,5.414-6.703,9.904C-87.175,73.747-82.394,78.527-76.496,78.527z"/>
	</g>
</g>
</svg>
