<?xml version="1.0" encoding="utf-8"?>
<!-- Generator: Adobe Illustrator 21.0.0, SVG Export Plug-In . SVG Version: 6.00 Build 0)  -->
<svg version="1.1" id="Capa_1" xmlns="http://www.w3.org/2000/svg" xmlns:xlink="http://www.w3.org/1999/xlink" x="0px" y="0px"
	 viewBox="0 0 490.1 490.1" style="enable-background:new 0 0 490.1 490.1;" xml:space="preserve">
<style type="text/css">
	.st0{fill:#FE4C06;}
</style>
<g>
	<g>
		<path class="st0" d="M245.2,27.3c-13.7,0-24.7,11-24.7,24.7v37.8h-3.2c-47,0-85.4,40.4-85.4,89.8s38.4,89.8,85.4,89.8h55.4
			c19.9,0,36.2,18.3,36.2,40.6c0,22.5-16.3,40.6-36.2,40.6H173c-13.7,0-24.7,11-24.7,24.7c0,13.7,11,24.7,24.7,24.7h47.4v38.4
			c0,13.7,11,24.7,24.7,24.7c13.7,0,24.7-11,24.7-24.7v-38.6h3.6c0.2,0,0.4,0,0.6,0c46.6-0.6,84.2-40.8,84.2-89.8
			c0-49.6-38.4-89.8-85.4-89.8h-55.4c-19.9,0-36.2-18.3-36.2-40.6s16.3-40.6,36.2-40.6h97.8c13.7,0,24.7-11,24.7-24.7
			s-11-24.7-24.7-24.7h-45.4V51.8C269.7,38.3,258.8,27.3,245.2,27.3z"/>
	</g>
</g>
</svg>
