<?xml version="1.0" encoding="utf-8"?>
<!-- Generator: Adobe Illustrator 16.0.0, SVG Export Plug-In . SVG Version: 6.00 Build 0)  -->
<!DOCTYPE svg PUBLIC "-//W3C//DTD SVG 1.1//EN" "http://www.w3.org/Graphics/SVG/1.1/DTD/svg11.dtd">
<svg version="1.1" id="Capa_1" xmlns="http://www.w3.org/2000/svg" xmlns:xlink="http://www.w3.org/1999/xlink" x="0px" y="0px"
	 width="512px" height="512px" viewBox="0 0 512 512" enable-background="new 0 0 512 512" xml:space="preserve">
<g>
	<g>
		<g>
			<path fill="#0E6CFD" d="M367.811,259.799h-10.515c-3.211-10.418-12.907-17.915-24.251-17.915h-11.691
				c-3.197-10.43-12.863-17.914-24.258-17.914h-9.125l-0.811-32.437l16.917,8.912c5.286,2.783,11.571,2.334,16.405-1.175
				c4.845-3.515,7.226-9.365,6.216-15.267l-8.437-49.287c-0.484-2.827,0.45-5.711,2.499-7.712L356.496,92.1
				c4.279-4.179,5.787-10.309,3.936-15.999c-1.849-5.683-6.668-9.748-12.576-10.609l-49.387-7.19
				c-2.822-0.411-5.264-2.19-6.529-4.757L269.855,8.703C267.21,3.334,261.855,0,255.876,0c-5.979,0-11.335,3.335-13.979,8.703
				l-22.086,44.841c-1.264,2.568-3.705,4.346-6.529,4.757l-49.386,7.19c-5.91,0.861-10.728,4.926-12.577,10.609
				c-1.851,5.69-0.343,11.82,3.935,15.999l35.736,34.904c2.049,2.002,2.983,4.885,2.499,7.713l-8.436,49.286
				c-1.011,5.903,1.37,11.753,6.214,15.268c4.834,3.509,11.121,3.959,16.406,1.175l26.373-13.893L231.19,300.96
				c-0.176,7.055-5.825,12.581-12.859,12.581c-7.092,0-12.863-5.789-12.863-12.904v-49.079c0-14.954-5.813-29.014-16.367-39.59
				c-5.188-5.198-12.804-7.157-19.878-5.112c-8.544,2.47-14.511,10.579-14.511,19.719v0.979c0,2.35-0.119,4.728-0.352,7.067
				l-7.135,71.494c-1.025,10.27-0.279,20.554,2.22,30.566c3.92,15.711,12.033,30.069,23.462,41.521l3.407,3.414
				c12.483,12.509,20.37,28.778,22.505,46.238c-7.038,2.154-12.171,8.719-12.171,16.461v14.688
				c-6.897,2.239-11.898,8.733-11.898,16.374v19.414c0,9.488,7.711,17.207,17.188,17.207h155c9.479,0,17.188-7.719,17.188-17.207
				v-19.414c0-7.642-5.001-14.136-11.897-16.374v-14.688c0-7.907-5.354-14.586-12.625-16.592
				c0.572-16.038,6.104-31.794,15.721-44.643c6.492-8.673,12.607-17.785,18.17-27.077l0.232-0.389
				c12.732-21.264,19.461-45.608,19.461-70.404C393.188,271.199,381.803,259.798,367.811,259.799z M200.68,187.173
				c-0.133,0.071-0.315,0.167-0.605-0.043c-0.303-0.221-0.265-0.447-0.239-0.597l8.436-49.286
				c1.316-7.687-1.227-15.528-6.803-20.974l-35.736-34.904c-0.108-0.106-0.27-0.264-0.152-0.628
				c0.115-0.353,0.331-0.384,0.474-0.405l49.386-7.19c7.713-1.124,14.376-5.973,17.824-12.973l22.086-44.842
				c0.068-0.14,0.163-0.331,0.523-0.331s0.455,0.191,0.523,0.332l22.085,44.841c3.447,7,10.11,11.849,17.824,12.973l49.387,7.19
				c0.143,0.02,0.358,0.052,0.474,0.405c0.119,0.364-0.044,0.523-0.151,0.628l-35.736,34.904
				c-5.576,5.447-8.119,13.287-6.803,20.974l8.436,49.286c0.025,0.15,0.064,0.376-0.239,0.597c-0.289,0.21-0.473,0.113-0.604,0.043
				l-24.338-12.82l-0.642-25.703c-0.134-5.345-1.058-10.628-2.745-15.703c-3.275-9.846-12.439-16.462-22.804-16.462
				c-10.365,0-19.529,6.616-22.805,16.463c-1.687,5.073-2.611,10.356-2.744,15.702l-0.518,20.722L200.68,187.173z M346.936,473.172
				c1.207,0,2.188,0.99,2.188,2.207v19.414c0,1.217-0.981,2.207-2.188,2.207h-155c-1.207,0-2.188-0.99-2.188-2.207v-19.414
				c0-1.217,0.982-2.207,2.188-2.207h96.273c4.143,0,7.5-3.357,7.5-7.5c0-4.142-3.357-7.5-7.5-7.5h-86.562v-13.854
				c0-1.218,0.982-2.207,2.188-2.207h131.202c1.207,0,2.188,0.989,2.188,2.207v13.854h-20.679c-4.142,0-7.5,3.358-7.5,7.5
				c0,4.143,3.358,7.5,7.5,7.5H346.936z M360.857,347.904l-0.232,0.389c-5.303,8.858-11.128,17.538-17.313,25.801
				c-11.424,15.264-18.002,33.969-18.698,53.017h-110.78c-2.343-21.179-11.793-40.948-26.902-56.089l-3.407-3.413
				c-9.511-9.531-16.263-21.48-19.526-34.559c-2.079-8.335-2.702-16.896-1.848-25.446l7.135-71.493
				c0.282-2.832,0.426-5.712,0.426-8.558v-0.979c0-2.5,1.512-4.683,3.678-5.309c1.817-0.526,3.77-0.029,5.094,1.298
				c7.728,7.745,11.984,18.042,11.984,28.995v49.079c0,15.387,12.499,27.904,27.863,27.904c15.238,0,27.473-11.951,27.854-27.207
				l3.803-152.31c0.096-3.862,0.763-7.678,1.982-11.342c1.233-3.707,4.677-6.198,8.571-6.198s7.338,2.491,8.57,6.198
				c1.22,3.665,1.888,7.481,1.984,11.342l2.063,82.632c0,0.009,0,0.017,0,0.026l1.564,62.673c0.104,4.142,3.549,7.418,7.686,7.312
				c4.142-0.103,7.415-3.544,7.311-7.685l-1.373-55.014h8.75c5.452,0,9.938,4.2,10.348,9.618c0,0.066,0.002,0.131,0.005,0.197
				l2.127,54.634c0.161,4.139,3.628,7.368,7.786,7.202c4.139-0.161,7.363-3.647,7.201-7.786l-1.789-45.951h10.271
				c5.281,0,9.688,3.982,10.306,9.178c-0.007,0.207-0.004,0.418,0.008,0.629l2.521,45.806c0.228,4.136,3.761,7.307,7.901,7.077
				c4.136-0.229,7.305-3.766,7.076-7.901l-2.028-36.873h8.983c5.723,0,10.377,4.672,10.377,10.414
				C378.188,307.294,372.193,328.975,360.857,347.904z"/>
			<path fill="#0E6CFD" d="M43.783,182.226l4.4-4.409c2.925-2.931,2.921-7.68-0.012-10.606c-2.931-2.927-7.68-2.921-10.606,0.011
				l-4.379,4.388l-4.379-4.388c-2.925-2.933-7.674-2.937-10.606-0.011c-2.932,2.925-2.937,7.674-0.011,10.606l4.4,4.409l-4.4,4.409
				c-2.926,2.931-2.921,7.68,0.011,10.606c2.931,2.926,7.68,2.92,10.606-0.011l4.379-4.388l4.379,4.388
				c1.465,1.468,3.387,2.202,5.309,2.202c1.917,0,3.834-0.73,5.298-2.191c2.932-2.925,2.937-7.674,0.011-10.606L43.783,182.226z"/>
			<path fill="#0E6CFD" d="M152.108,194.121l-4.141-24.196c-0.026-0.152,0.023-0.305,0.131-0.411l17.544-17.136
				c3.147-3.074,4.256-7.583,2.895-11.767c-1.36-4.181-4.906-7.172-9.255-7.805l-24.245-3.53c-0.142-0.02-0.266-0.112-0.331-0.244
				l-10.842-22.014c-1.945-3.95-5.887-6.404-10.288-6.404c-4.401,0-8.343,2.453-10.288,6.403l-10.843,22.014
				c-0.066,0.133-0.189,0.224-0.331,0.245l-24.245,3.53c-4.349,0.634-7.895,3.624-9.255,7.805
				c-1.361,4.184-0.252,8.693,2.895,11.767l17.544,17.136c0.108,0.106,0.157,0.259,0.131,0.411l-4.142,24.196
				c-0.743,4.34,1.008,8.643,4.571,11.229c3.558,2.582,8.186,2.914,12.077,0.865l21.687-11.425c0.123-0.065,0.271-0.065,0.396,0.001
				l21.687,11.424c1.695,0.893,3.528,1.333,5.353,1.333c2.365,0,4.715-0.741,6.724-2.199
				C151.1,202.763,152.851,198.46,152.108,194.121z M137.617,158.783c-3.635,3.55-5.293,8.662-4.435,13.672l2.936,17.152
				l-15.351-8.087c-4.503-2.373-9.879-2.372-14.38,0l-15.352,8.087l2.936-17.151c0.858-5.01-0.8-10.122-4.435-13.672l-12.45-12.161
				l17.191-2.503c5.03-0.732,9.376-3.895,11.625-8.46l7.674-15.581l7.674,15.582c2.248,4.564,6.594,7.727,11.625,8.459l17.191,2.503
				L137.617,158.783z"/>
			<path fill="#0E6CFD" d="M493.809,186.636l-4.4-4.409l4.399-4.409c2.927-2.932,2.921-7.681-0.011-10.606
				c-2.932-2.927-7.681-2.921-10.605,0.011l-4.379,4.388l-4.38-4.388c-2.926-2.933-7.675-2.937-10.605-0.011
				c-2.933,2.926-2.938,7.675-0.011,10.606l4.399,4.409l-4.399,4.409c-2.927,2.932-2.922,7.681,0.011,10.606
				c2.931,2.926,7.68,2.92,10.605-0.011l4.38-4.388l4.379,4.388c1.465,1.468,3.387,2.202,5.309,2.202
				c1.917,0,3.834-0.73,5.298-2.191C496.73,194.316,496.736,189.567,493.809,186.636z"/>
			<path fill="#0E6CFD" d="M444.131,132.805l-24.245-3.53c-0.142-0.02-0.266-0.112-0.331-0.244l-10.843-22.014
				c-1.945-3.95-5.888-6.404-10.288-6.404s-8.343,2.454-10.287,6.404l-10.844,22.014c-0.066,0.133-0.189,0.224-0.331,0.245
				l-24.245,3.53c-4.349,0.634-7.895,3.624-9.255,7.805c-1.36,4.184-0.252,8.693,2.896,11.767l17.543,17.136
				c0.107,0.106,0.156,0.259,0.131,0.411l-4.141,24.195c-0.744,4.34,1.006,8.643,4.569,11.229c3.56,2.583,8.187,2.915,12.078,0.866
				l21.686-11.424c0.123-0.066,0.271-0.067,0.397,0l21.688,11.424c1.694,0.893,3.527,1.333,5.353,1.333
				c2.366,0,4.715-0.74,6.724-2.198c3.563-2.586,5.314-6.889,4.571-11.229l-4.142-24.196c-0.026-0.152,0.022-0.305,0.131-0.411
				l17.544-17.136c3.146-3.074,4.256-7.582,2.895-11.767C452.023,136.43,448.479,133.439,444.131,132.805z M422.466,158.783
				c-3.635,3.55-5.293,8.662-4.435,13.672l2.936,17.152l-15.351-8.086c-2.252-1.187-4.722-1.78-7.191-1.78
				c-2.469,0-4.938,0.593-7.19,1.779l-15.352,8.087l2.936-17.151c0.858-5.01-0.799-10.122-4.435-13.672l-12.45-12.161l17.191-2.503
				c5.029-0.732,9.376-3.895,11.625-8.46l7.674-15.581l7.674,15.582c2.248,4.564,6.595,7.727,11.625,8.459l17.191,2.503
				L422.466,158.783z"/>
		</g>
	</g>
</g>
<image display="none" overflow="visible" width="150" height="150" xlink:href="73B8BCBD.jpg"  transform="matrix(1 0 0 1 -143 270)">
</image>
</svg>
