<?xml version="1.0" encoding="utf-8"?>
<!-- Generator: Adobe Illustrator 16.0.0, SVG Export Plug-In . SVG Version: 6.00 Build 0)  -->
<!DOCTYPE svg PUBLIC "-//W3C//DTD SVG 1.1//EN" "http://www.w3.org/Graphics/SVG/1.1/DTD/svg11.dtd">
<svg version="1.1" id="Capa_1" xmlns="http://www.w3.org/2000/svg" xmlns:xlink="http://www.w3.org/1999/xlink" x="0px" y="0px"
	 width="512px" height="512px" viewBox="0 0 512 512" enable-background="new 0 0 512 512" xml:space="preserve">
<g>
	<path fill="#0E6CFD" d="M476.015,68.267H35.985C16.145,68.267,0,84.412,0,104.252v303.496c0,19.84,16.145,35.985,35.985,35.985
		h440.03c19.841,0,35.985-16.146,35.985-35.985V104.252C512,84.412,495.855,68.267,476.015,68.267z M494.934,407.748
		c0,10.437-8.482,18.919-18.919,18.919H35.985c-10.436,0-18.918-8.482-18.918-18.919V104.252c0-10.437,8.482-18.918,18.918-18.918
		h440.03c10.437,0,18.919,8.482,18.919,18.918V407.748z"/>
	<path fill="#0E6CFD" d="M193.178,309.299l-31.044-15.854v-3.302c13.892-7.587,23.663-20.08,29.116-37.24
		c8.269-4.386,13.551-12.928,13.551-22.502v-8.533c0-7.902-3.678-15.232-9.822-20.045c-5.325-32.256-27.835-48.606-66.978-48.606
		c-1.852,0-3.661,0.068-5.427,0.205c-7.373,0.606-18.167-0.034-27.511-6.315c-3.49-2.355-6.127-4.642-7.808-6.767
		c-2.867-3.661-7.688-4.941-11.964-3.183c-4.284,1.758-6.801,6.042-6.263,10.641c0.358,3.191,0.896,6.903,1.707,10.974
		c1.647,8.32,1.647,8.32-0.666,13.295c-0.871,1.886-1.946,4.181-3.208,7.279c-2.825,6.92-4.83,14.498-5.982,22.587
		c-6.059,4.821-9.677,12.109-9.677,19.934v8.533c0,9.575,5.282,18.116,13.551,22.502c5.453,17.169,15.224,29.662,29.116,37.24v3.208
		l-32.162,15.854c-11.742,6.4-19.038,18.688-19.038,32.068v11.307c0,6.853,0,22.887,85.333,22.887s85.333-16.034,85.333-22.887
		v-10.624C213.333,328.038,205.611,315.537,193.178,309.299z M196.267,350.651c-5.325,3.243-26.982,7.749-68.267,7.749
		s-62.942-4.506-68.267-7.749v-9.378c0-7.125,3.883-13.679,9.831-16.913l32.913-16.222c5.137-2.509,8.448-7.825,8.448-13.551
		v-15.386l-5.154-2.219c-12.945-5.581-21.359-16.222-25.728-32.546l-1.22-4.548l-4.488-1.399c-3.567-1.118-6.067-4.438-6.067-8.09
		v-8.533c0-3.089,1.767-5.957,4.617-7.475l4.002-2.133l0.469-4.514c0.845-8.004,2.628-15.386,5.308-21.931
		c1.135-2.773,2.099-4.847,2.884-6.545c2.893-6.212,3.942-9.42,3.217-16c10.035,5.735,22.093,8.175,35.174,7.177
		c1.323-0.111,2.68-0.162,4.071-0.162c31.949,0,47.547,11.571,50.594,37.53l0.529,4.454l3.968,2.099
		c2.85,1.519,4.634,4.395,4.634,7.501v8.533c0,3.652-2.5,6.972-6.076,8.081l-4.489,1.399l-1.22,4.548
		c-4.369,16.324-12.783,26.966-25.728,32.546l-5.154,2.228v15.454c0,5.709,3.157,10.854,8.226,13.439l32.213,16.461
		c6.639,3.312,10.76,9.984,10.76,17.399V350.651z"/>
	<path fill="#0E6CFD" d="M256,196.267h85.334c4.719,0,8.533-3.814,8.533-8.533s-3.814-8.533-8.533-8.533H256
		c-4.719,0-8.533,3.814-8.533,8.533S251.281,196.267,256,196.267z"/>
	<path fill="#0E6CFD" d="M375.467,196.267H384c4.719,0,8.533-3.814,8.533-8.533S388.719,179.2,384,179.2h-8.533
		c-4.719,0-8.533,3.814-8.533,8.533S370.748,196.267,375.467,196.267z"/>
	<path fill="#0E6CFD" d="M264.533,324.267H256c-4.719,0-8.533,3.814-8.533,8.533s3.814,8.533,8.533,8.533h8.533
		c4.719,0,8.533-3.814,8.533-8.533S269.252,324.267,264.533,324.267z"/>
	<path fill="#0E6CFD" d="M315.733,324.267h-17.067c-4.719,0-8.533,3.814-8.533,8.533s3.814,8.533,8.533,8.533h17.067
		c4.719,0,8.533-3.814,8.533-8.533S320.452,324.267,315.733,324.267z"/>
	<path fill="#0E6CFD" d="M358.4,324.267h-8.533c-4.719,0-8.533,3.814-8.533,8.533s3.814,8.533,8.533,8.533h8.533
		c4.719,0,8.533-3.814,8.533-8.533S363.119,324.267,358.4,324.267z"/>
	<path fill="#0E6CFD" d="M409.6,324.267h-17.066c-4.719,0-8.533,3.814-8.533,8.533s3.814,8.533,8.533,8.533H409.6
		c4.72,0,8.534-3.814,8.534-8.533S414.319,324.267,409.6,324.267z"/>
	<path fill="#0E6CFD" d="M437.675,326.741c-1.545,1.613-2.475,3.84-2.475,6.059s0.93,4.438,2.475,6.059
		c1.612,1.536,3.84,2.475,6.059,2.475s4.438-0.938,6.059-2.475c1.536-1.621,2.475-3.84,2.475-6.059s-0.938-4.445-2.475-6.059
		C446.55,323.584,440.832,323.584,437.675,326.741z"/>
	<path fill="#0E6CFD" d="M443.733,230.4H256c-4.719,0-8.533,3.814-8.533,8.534c0,4.719,3.814,8.533,8.533,8.533h187.733
		c4.719,0,8.533-3.814,8.533-8.533C452.267,234.214,448.452,230.4,443.733,230.4z"/>
	<path fill="#0E6CFD" d="M443.733,281.6H256c-4.719,0-8.533,3.814-8.533,8.533c0,4.72,3.814,8.533,8.533,8.533h187.733
		c4.719,0,8.533-3.813,8.533-8.533C452.267,285.414,448.452,281.6,443.733,281.6z"/>
</g>
</svg>
