<?xml version="1.0" encoding="utf-8"?>
<!-- Generator: Adobe Illustrator 16.0.0, SVG Export Plug-In . SVG Version: 6.00 Build 0)  -->
<!DOCTYPE svg PUBLIC "-//W3C//DTD SVG 1.1//EN" "http://www.w3.org/Graphics/SVG/1.1/DTD/svg11.dtd">
<svg version="1.1" id="Layer_1" xmlns="http://www.w3.org/2000/svg" xmlns:xlink="http://www.w3.org/1999/xlink" x="0px" y="0px"
	 width="512px" height="512px" viewBox="0 0 512 512" enable-background="new 0 0 512 512" xml:space="preserve">
<g>
	<g>
		<path fill="#0E6CFD" d="M340.943,121.875c0.146-0.623,0.385-1.741,0.385-2.407V68.27c0-4.719-3.814-8.533-8.533-8.533
			s-8.533,3.814-8.533,8.533v38.374c-18.816-13.585-41.83-21.308-66.73-21.308c-0.247,0-0.503,0-0.742,0
			c-18.764,0-36.402,4.48-51.993,12.621V59.736c0-4.719-3.823-8.533-8.533-8.533c-4.71,0-8.533,3.814-8.533,8.533v49.203
			c-27.238,21.085-44.791,55.116-44.552,92.142c0.401,62.795,51.618,114.652,114.328,114.652c0.248,0,0.504,0,0.742,0
			c63.053,0,114.021-53.076,113.611-116.128C371.672,169.738,359.896,142.142,340.943,121.875z M258.138,298.666
			c-0.214,0-0.419,0-0.632,0c-53.349,0-96.92-44.083-97.261-97.509c-0.35-53.631,43.016-98.755,96.647-98.755
			c0.214,0,0.418,0,0.632,0c53.35,0,96.92,44.083,97.262,97.509C355.135,253.542,311.777,298.666,258.138,298.666z"/>
	</g>
</g>
<g>
	<g>
		<path fill="#0E6CFD" d="M196.263,0.004c-4.71,0-8.533,3.814-8.533,8.533v17.066c0,4.719,3.823,8.533,8.533,8.533
			c4.71,0,8.533-3.814,8.533-8.533V8.538C204.796,3.818,200.974,0.004,196.263,0.004z"/>
	</g>
</g>
<g>
	<g>
		<path fill="#0E6CFD" d="M332.795,8.538c-4.719,0-8.533,3.814-8.533,8.533v17.066c0,4.719,3.814,8.533,8.533,8.533
			s8.533-3.814,8.533-8.533V17.071C341.328,12.352,337.514,8.538,332.795,8.538z"/>
	</g>
</g>
<g>
	<g>
		<path fill="#0E6CFD" d="M102.398,196.268c-4.71,0-8.533,3.814-8.533,8.533v68.266c0,4.719,3.823,8.533,8.533,8.533
			c4.71,0,8.533-3.814,8.533-8.533v-68.266C110.932,200.082,107.108,196.268,102.398,196.268z"/>
	</g>
</g>
<g>
	<g>
		<path fill="#0E6CFD" d="M102.398,145.068c-4.71,0-8.533,3.814-8.533,8.533v17.066c0,4.719,3.823,8.533,8.533,8.533
			c4.71,0,8.533-3.814,8.533-8.533v-17.066C110.932,148.883,107.108,145.068,102.398,145.068z"/>
	</g>
</g>
<g>
	<g>
		<path fill="#0E6CFD" d="M426.659,119.469c-4.719,0-8.533,3.814-8.533,8.533v68.266c0,4.719,3.814,8.533,8.533,8.533
			c4.72,0,8.533-3.814,8.533-8.533v-68.266C435.192,123.283,431.379,119.469,426.659,119.469z"/>
	</g>
</g>
<g>
	<g>
		<path fill="#0E6CFD" d="M426.659,68.27c-4.719,0-8.533,3.814-8.533,8.533v17.066c0,4.719,3.814,8.533,8.533,8.533
			c4.72,0,8.533-3.814,8.533-8.533V76.803C435.192,72.084,431.379,68.27,426.659,68.27z"/>
	</g>
</g>
<g>
	<g>
		<path fill="#0E6CFD" d="M290.018,221.483l-0.06-8.525c-0.043-6.844-2.739-13.252-7.612-18.056
			c-4.872-4.796-11.579-7.561-18.149-7.33l-17.066,0.162c-0.017,0-0.034,0-0.051,0c-4.676,0-8.508-3.849-8.533-8.533l-0.051-8.55
			c-0.025-4.71,3.771-8.576,8.482-8.601l8.329-0.06c0.273,0.017,0.512,0.145,0.802,0.145c0.017,0,0.034,0,0.051,0
			c0.291,0,0.538-0.145,0.819-0.17l24.115-0.154c4.719-0.034,8.516-3.712,8.482-8.422c-0.035-4.702-3.84-8.32-8.533-8.32
			c-0.018,0-0.035,0-0.052,0l-16.409-0.06l-0.051-8.448c-0.025-4.693-3.849-8.559-8.534-8.559c-0.017,0-0.034,0-0.051,0
			c-4.71,0.034-8.507,3.934-8.482,8.645l0.051,8.422h-0.648c-14.114,0-25.523,11.588-25.438,25.71l0.051,8.559
			c0.094,14.063,11.563,25.463,25.608,25.463c0.051,0,0.111,0,0.162,0h17.066c0.017,0,0.034,0,0.052,0
			c2.252,0,4.377,0.768,5.998,2.347c1.613,1.604,2.518,3.687,2.535,5.973l0.06,8.499c0.034,4.71-3.772,8.55-8.482,8.576
			l-34.133,0.213c-4.71,0.034-8.507,3.874-8.482,8.584c0.026,4.693,3.849,8.474,8.533,8.474c0.017,0,0.034,0,0.051,0l17.066-0.111
			l0.051,8.704c0.025,4.693,3.849,8.474,8.533,8.474c0.017,0,0.034,0,0.051,0c4.71-0.034,8.517-3.874,8.481-8.593l-0.051-8.695
			C278.693,247.151,290.104,235.605,290.018,221.483z"/>
	</g>
</g>
<g>
	<g>
		<circle fill="#0E6CFD" cx="196.263" cy="204.801" r="8.533"/>
	</g>
</g>
<g>
	<g>
		<circle fill="#0E6CFD" cx="315.729" cy="204.801" r="8.533"/>
	</g>
</g>
<g>
	<g>
		<path fill="#0E6CFD" d="M503.458,332.799h-93.865c-11.11,0-20.496,7.159-24.029,17.066h-42.717c-4.616,0-8.329,3.678-8.481,8.26
			l-71.193-16.153c-5.137-1.16-10.47-0.759-15.376,1.194l-66.815,26.505c-8.627,3.422-14.95,10.367-17.553,18.765L32.947,350.164
			c-7.953-2.313-16.298-0.837-22.886,4.096C3.669,359.056,0,366.325,0,374.219v18.509c0,8.465,4.301,16.298,11.494,20.949
			l94.795,61.345c0.836,0.537,1.766,0.93,2.739,1.152l141.139,32.229c1.912,0.443,3.874,0.657,5.828,0.657
			c1.963,0,3.917-0.214,5.829-0.657l74.281-17.041c1.545,2.107,3.926,3.567,6.75,3.567h42.717
			c3.533,9.906,12.919,17.066,24.029,17.066h93.865c4.719,0,8.533-3.814,8.533-8.533V341.332
			C511.991,336.613,508.177,332.799,503.458,332.799z M332.257,474.74l-74.256,17.032c-1.306,0.307-2.696,0.307-4.019,0
			l-139.68-31.897l-93.541-60.534c-2.313-1.502-3.695-3.968-3.695-6.622V374.21c0-3.379,2.014-5.384,3.217-6.28
			c2.253-1.681,5.103-2.21,7.851-1.382l135.481,39.79c3.977,11.759,15.352,20.326,28.723,20.326h63.658
			c4.71,0,8.534-3.814,8.534-8.533s-3.823-8.533-8.534-8.533h-63.658c-7.245,0-13.141-5.606-13.141-12.459
			c0-5.068,3.174-9.616,8.089-11.57l66.815-26.521c1.689-0.674,3.533-0.819,5.308-0.418l73.351,16.64L332.257,474.74z
			 M383.994,477.863h-34.133V366.932h34.133V477.863z M494.925,494.93h-85.332c-4.71,0-8.533-3.823-8.533-8.533V358.398
			c0-4.711,3.823-8.533,8.533-8.533h85.332V494.93z"/>
	</g>
</g>
<g>
	<g>
		<path fill="#0E6CFD" d="M462.319,460.797h-25.599c-4.72,0-8.533,3.814-8.533,8.533s3.813,8.533,8.533,8.533h25.599
			c4.72,0,8.533-3.814,8.533-8.533S467.039,460.797,462.319,460.797z"/>
	</g>
</g>
</svg>
