<?xml version="1.0" encoding="utf-8"?>
<!-- Generator: Adobe Illustrator 16.0.0, SVG Export Plug-In . SVG Version: 6.00 Build 0)  -->
<!DOCTYPE svg PUBLIC "-//W3C//DTD SVG 1.1//EN" "http://www.w3.org/Graphics/SVG/1.1/DTD/svg11.dtd">
<svg version="1.1" id="Capa_1" xmlns="http://www.w3.org/2000/svg" xmlns:xlink="http://www.w3.org/1999/xlink" x="0px" y="0px"
	 width="512px" height="512px" viewBox="0 0 512 512" enable-background="new 0 0 512 512" xml:space="preserve">
<g>
	<g>
		<path fill="#0E6CFD" d="M243.062,139.18c-1.86-1.86-4.44-2.93-7.07-2.93c-2.64,0-5.21,1.07-7.07,2.93
			c-1.86,1.86-2.93,4.44-2.93,7.07s1.07,5.21,2.93,7.07c1.86,1.86,4.43,2.93,7.07,2.93c2.63,0,5.21-1.07,7.07-2.93
			c1.86-1.86,2.93-4.44,2.93-7.07S244.922,141.04,243.062,139.18z"/>
	</g>
</g>
<g>
	<g>
		<path fill="#0E6CFD" d="M283.082,261.8c-1.859-1.86-4.439-2.92-7.07-2.92c-2.63,0-5.21,1.06-7.07,2.92
			c-1.859,1.87-2.93,4.44-2.93,7.08c0,2.63,1.07,5.21,2.93,7.07c1.86,1.86,4.44,2.93,7.07,2.93c2.631,0,5.211-1.069,7.07-2.93
			s2.93-4.44,2.93-7.07C286.012,266.24,284.941,263.67,283.082,261.8z"/>
	</g>
</g>
<g>
	<g>
		<path fill="#0E6CFD" d="M411.49,144.82c0.612-2.819,0.937-5.716,0.937-8.651c0-22.396-18.221-40.618-40.618-40.618
			c-2.896,0-5.757,0.314-8.547,0.912C357.523,75.475,338.297,60,315.514,60c-27.296,0-49.502,22.208-49.502,49.504v121.015
			c0,5.523,4.477,10,10,10c5.522,0,10-4.477,10-10V109.504c0-16.269,13.234-29.504,29.502-29.504
			c16.27,0,29.504,13.235,29.504,29.504v2.602c0,2.032-0.381,4.022-1.064,5.897c-4.122-2.391-8.903-3.768-14.002-3.768
			c-15.439,0-28,12.561-28,28s12.561,28,28,28s28-12.561,28-28c0-2.454-0.32-4.834-0.915-7.103c4.155-5.29,6.813-11.63,7.669-18.317
			c2.258-0.828,4.654-1.263,7.104-1.263c11.369,0,20.618,9.249,20.618,20.618c0,4.557-1.497,8.936-4.241,12.519
			c-11.424,5.577-19.936,16.234-22.564,29.014c-10.959,3.8-18.852,14.221-18.852,26.457c0,15.439,12.561,28,28,28
			c15.438,0,27.999-12.561,27.999-28c0-11.398-6.85-21.221-16.646-25.585c3.063-8.213,10.982-14.079,20.249-14.079
			c11.912,0,21.603,9.691,21.603,21.603v51.176c0,11.912-9.69,21.603-21.603,21.603c-5.99,0-11.56-2.396-15.683-6.745
			c-3.799-4.009-10.129-4.178-14.137-0.378c-4.008,3.799-4.178,10.129-0.378,14.138c5.445,5.744,12.433,9.776,20.011,11.701
			c4.007,5.916,6.111,12.783,6.111,20.034c0,19.778-16.09,35.868-35.867,35.868c-16.718,0-30.799-11.497-34.757-26.998
			c13.007-2.41,22.888-13.831,22.888-27.523c0-15.439-12.561-28-28-28c-15.438,0-28,12.561-28,28
			c0,9.578,4.836,18.045,12.193,23.096c1.6,20.214,13.987,37.438,31.407,45.874c-5.086,9.807-15.251,16.056-26.4,16.056
			c-16.403,0-29.75-13.346-29.75-29.75v-31.813c0-5.523-4.477-10-10-10c-5.522,0-10,4.477-10,10v31.813
			c0,11.146,3.685,21.447,9.899,29.75h-39.818c6.214-8.303,9.899-18.604,9.899-29.75V186.159c0-5.523-4.477-10-10-10
			c-5.523,0-10,4.477-10,10V334.25c0,16.404-13.346,29.75-29.75,29.75c-11.149,0-21.314-6.249-26.401-16.059
			c17.419-8.437,29.808-25.66,31.407-45.875c7.356-5.051,12.193-13.518,12.193-23.096c0-15.438-12.561-28-28-28s-28,12.561-28,28
			c0,13.693,9.883,25.114,22.888,27.524c-3.958,15.502-18.039,26.998-34.756,26.998c-19.778,0-35.868-16.09-35.868-35.868
			c0-7.251,2.106-14.118,6.111-20.034c7.578-1.925,14.567-5.958,20.011-11.702c3.8-4.008,3.63-10.337-0.378-14.137
			c-4.008-3.8-10.337-3.631-14.137,0.378c-4.123,4.349-9.692,6.745-15.683,6.745c-11.912,0-21.603-9.691-21.603-21.603v-51.176
			c0-11.912,9.691-21.603,21.603-21.603c9.267,0,17.188,5.866,20.249,14.079c-9.796,4.364-16.646,14.187-16.646,25.585
			c0,15.439,12.561,28,28,28s28-12.561,28-28c0-12.236-7.893-22.657-18.852-26.457c-2.629-12.78-11.139-23.436-22.565-29.013
			c-2.743-3.583-4.241-7.962-4.241-12.519c0-11.369,9.249-20.618,20.618-20.618c2.446,0,4.84,0.434,7.096,1.26
			c0.784,6.234,3.109,12.122,6.805,17.191c-0.803,2.604-1.237,5.368-1.237,8.232c0,15.439,12.561,28,28,28s28-12.561,28-28
			s-12.561-28-28-28c-4.696,0-9.123,1.168-13.014,3.219c-0.556-1.707-0.858-3.504-0.858-5.348v-2.602
			c0-16.269,13.235-29.504,29.504-29.504c16.268,0,29.503,13.235,29.503,29.504c0,5.523,4.477,10,10,10s10-4.477,10-10
			C245.99,82.208,223.782,60,196.486,60c-22.783,0-42.009,15.476-47.748,36.463c-2.79-0.598-5.651-0.912-8.547-0.912
			c-22.396,0-40.618,18.221-40.618,40.618c0,2.935,0.325,5.832,0.937,8.651c-20.533,2.531-36.486,20.07-36.486,41.277v51.176
			c0,18.766,12.493,34.663,29.596,39.829c-2.564,6.5-3.918,13.473-3.918,20.524c0,30.806,25.063,55.868,55.868,55.868
			c1.58,0,3.141-0.082,4.688-0.211l0.486,1.098c2.844,6.426,6.954,12.034,11.955,16.597c-8.136,6.219-13.397,16.016-13.397,27.022
			c0,9.359,3.802,17.846,9.941,24c-6.139,6.154-9.941,14.641-9.941,24c0,18.748,15.252,34,34,34h31.963
			c4.499,18.345,21.075,32,40.787,32s36.288-13.655,40.787-32h31.963c18.748,0,34-15.252,34-34c0-9.359-3.802-17.846-9.94-24
			c6.139-6.154,9.94-14.641,9.94-24c0-11.032-5.284-20.85-13.452-27.066c4.979-4.554,9.071-10.146,11.906-16.553l0.486-1.098
			c1.547,0.129,3.107,0.211,4.688,0.211c30.807,0,55.868-25.063,55.868-55.868c0-7.052-1.354-14.024-3.918-20.524
			c17.104-5.166,29.596-21.063,29.596-39.829v-51.176C447.976,164.891,432.023,147.352,411.49,144.82z M329.951,150.234
			c-4.411,0-8-3.589-8-8c0-4.411,3.589-8,8-8c4.41,0,8,3.589,8,8C337.951,146.645,334.361,150.234,329.951,150.234z M374.77,212.159
			c-4.41,0-8-3.589-8-8c0-4.411,3.59-8,8-8c4.412,0,8,3.589,8,8C382.77,208.57,379.182,212.159,374.77,212.159z M326.563,286.973
			c-4.412,0-8-3.59-8-8c0-4.412,3.588-8,8-8c4.41,0,8,3.588,8,8C334.563,283.383,330.973,286.973,326.563,286.973z M177.438,278.973
			c0-4.412,3.589-8,8-8s8,3.588,8,8c0,4.41-3.589,8-8,8S177.438,283.383,177.438,278.973z M137.23,196.159c4.411,0,8,3.589,8,8
			c0,4.411-3.588,8-8,8c-4.411,0-8-3.589-8-8C129.23,199.748,132.819,196.159,137.23,196.159z M180.854,134.234c4.411,0,8,3.589,8,8
			c0,4.411-3.589,8-8,8s-8-3.589-8-8C172.854,137.823,176.443,134.234,180.854,134.234z M256.052,492
			c-8.531,0-15.938-4.884-19.586-12h39.173C271.99,487.116,264.583,492,256.052,492z M328.802,460h-145.5c-7.72,0-14-6.28-14-14
			s6.28-14,14-14h145.5c7.72,0,14,6.28,14,14S336.521,460,328.802,460z M328.802,412h-145.5c-7.72,0-14-6.28-14-14s6.28-14,14-14
			h145.5c7.72,0,14,6.28,14,14S336.521,412,328.802,412z"/>
	</g>
</g>
<g>
	<g>
		<path fill="#0E6CFD" d="M256.052,0c-5.523,0-10,4.477-10,10v29.75c0,5.523,4.477,10,10,10c5.523,0,10-4.477,10-10V10
			C266.052,4.477,261.575,0,256.052,0z"/>
	</g>
</g>
<g>
	<g>
		<path fill="#0E6CFD" d="M219.797,30.582l-8.947-15.497c-2.761-4.784-8.878-6.423-13.66-3.66c-4.783,2.761-6.422,8.877-3.66,13.66
			l8.947,15.497c1.852,3.208,5.213,5.001,8.669,5.001c1.696,0,3.416-0.432,4.991-1.341C220.92,41.481,222.559,35.365,219.797,30.582
			z"/>
	</g>
</g>
<g>
	<g>
		<path fill="#0E6CFD" d="M315.15,11.36c-4.782-2.761-10.898-1.123-13.66,3.66l-8.947,15.497c-2.762,4.782-1.123,10.899,3.66,13.66
			c1.574,0.909,3.294,1.341,4.99,1.341c3.457,0,6.817-1.793,8.67-5.001l8.947-15.497C321.572,20.237,319.934,14.121,315.15,11.36z"
			/>
	</g>
</g>
</svg>
