<?xml version="1.0" encoding="utf-8"?>
<!-- Generator: Adobe Illustrator 16.0.0, SVG Export Plug-In . SVG Version: 6.00 Build 0)  -->
<!DOCTYPE svg PUBLIC "-//W3C//DTD SVG 1.1//EN" "http://www.w3.org/Graphics/SVG/1.1/DTD/svg11.dtd">
<svg version="1.1" id="Capa_1" xmlns="http://www.w3.org/2000/svg" xmlns:xlink="http://www.w3.org/1999/xlink" x="0px" y="0px"
	 width="960px" height="560px" viewBox="0 0 960 560" enable-background="new 0 0 960 560" xml:space="preserve">
<g>
	<g>
		<path fill="#0E6CFD" d="M721.172,29.531H548.857c-6.041,0-10.938,4.898-10.938,10.938s4.896,10.938,10.938,10.938h172.314
			c9.349,0,16.953,7.605,16.953,16.953v136.172v32.813v114.118h-472.5v-66.896c0-6.04-4.896-10.938-10.938-10.938
			s-10.938,4.897-10.938,10.938v66.896h-21.875V202.344v-9.858V68.359c0-9.348,7.605-16.953,16.953-16.953H459.17
			c6.04,0,10.938-4.898,10.938-10.938s-4.897-10.938-10.938-10.938H238.828c-21.41,0-38.828,17.418-38.828,38.828v124.126v9.858
			v203.984c0,21.41,17.418,38.828,38.828,38.828H427.5v63.438h-37.08c-6.041,0-10.938,4.897-10.938,10.938
			s4.896,10.938,10.938,10.938h48.018h83.125h48.018c6.041,0,10.938-4.897,10.938-10.938s-4.896-10.938-10.938-10.938H532.5v-63.438
			h188.672c21.41,0,38.828-17.418,38.828-38.828V237.344v-32.813V68.359C760,46.949,742.582,29.531,721.172,29.531z
			 M510.625,508.594h-61.25v-63.438h61.25V508.594z M738.125,406.328c0,9.349-7.604,16.953-16.953,16.953H238.828
			c-9.348,0-16.953-7.604-16.953-16.953v-32.991h516.25V406.328z"/>
	</g>
</g>
<g>
	<g>
		<path fill="#0E6CFD" d="M511.763,32.736c-2.034-2.034-4.856-3.205-7.733-3.205c-2.876,0-5.698,1.169-7.732,3.205
			s-3.205,4.856-3.205,7.733s1.16,5.698,3.205,7.731c2.034,2.036,4.856,3.206,7.732,3.206c2.877,0,5.699-1.17,7.733-3.206
			c2.034-2.033,3.204-4.855,3.204-7.731S513.797,34.771,511.763,32.736z"/>
	</g>
</g>
<g>
	<g>
		<path fill="#0E6CFD" d="M479.954,385.867c-6.041,0-10.938,4.898-10.938,10.938c0,6.04,4.896,10.938,10.938,10.938h0.093
			c6.041,0,10.892-4.897,10.892-10.938C490.938,390.766,485.994,385.867,479.954,385.867z"/>
	</g>
</g>
<g>
	<g>
		<path fill="#0E6CFD" d="M361.852,82.031c-6.041,0-10.938,4.898-10.938,10.938v78.75c0,6.04,4.897,10.938,10.938,10.938
			s10.938-4.898,10.938-10.938v-78.75C372.79,86.929,367.893,82.031,361.852,82.031z"/>
	</g>
</g>
<g>
	<g>
		<path fill="#0E6CFD" d="M497.477,82.031c-6.04,0-10.938,4.898-10.938,10.938v78.75c0,6.04,4.897,10.938,10.938,10.938
			c6.041,0,10.938-4.898,10.938-10.938v-78.75C508.414,86.929,503.518,82.031,497.477,82.031z"/>
	</g>
</g>
<g>
	<g>
		<path fill="#0E6CFD" d="M291.852,82.031c-18.093,0-32.813,14.72-32.813,32.813v35c0,18.093,14.72,32.813,32.813,32.813
			s32.813-14.72,32.813-32.813v-35C324.665,96.751,309.945,82.031,291.852,82.031z M302.79,149.844
			c0,6.031-4.907,10.938-10.938,10.938s-10.938-4.907-10.938-10.938v-35c0-6.031,4.907-10.938,10.938-10.938
			s10.938,4.907,10.938,10.938V149.844z"/>
	</g>
</g>
<g>
	<g>
		<path fill="#0E6CFD" d="M431.852,82.031c-18.093,0-32.813,14.72-32.813,32.813v35c0,18.093,14.72,32.813,32.813,32.813
			c18.094,0,32.813-14.72,32.813-32.813v-35C464.664,96.751,449.945,82.031,431.852,82.031z M442.789,149.844
			c0,6.031-4.906,10.938-10.938,10.938c-6.03,0-10.938-4.907-10.938-10.938v-35c0-6.031,4.907-10.938,10.938-10.938
			c6.031,0,10.938,4.907,10.938,10.938V149.844z"/>
	</g>
</g>
<g>
	<g>
		<path fill="#0E6CFD" d="M628.727,82.031c-6.04,0-10.938,4.898-10.938,10.938v78.75c0,6.04,4.897,10.938,10.938,10.938
			c6.041,0,10.938-4.898,10.938-10.938v-78.75C639.664,86.929,634.768,82.031,628.727,82.031z"/>
	</g>
</g>
<g>
	<g>
		<path fill="#0E6CFD" d="M563.102,82.031c-18.093,0-32.813,14.72-32.813,32.813v35c0,18.093,14.72,32.813,32.813,32.813
			c18.094,0,32.813-14.72,32.813-32.813v-35C595.914,96.751,581.195,82.031,563.102,82.031z M574.039,149.844
			c0,6.031-4.906,10.938-10.938,10.938c-6.03,0-10.938-4.907-10.938-10.938v-35c0-6.031,4.907-10.938,10.938-10.938
			c6.031,0,10.938,4.907,10.938,10.938V149.844z"/>
	</g>
</g>
<g>
	<g>
		<path fill="#0E6CFD" d="M423.125,213.281c-6.041,0-10.938,4.898-10.938,10.938v78.75c0,6.04,4.896,10.938,10.938,10.938
			s10.938-4.897,10.938-10.938v-78.75C434.063,218.179,429.166,213.281,423.125,213.281z"/>
	</g>
</g>
<g>
	<g>
		<path fill="#0E6CFD" d="M558.75,213.281c-6.041,0-10.938,4.898-10.938,10.938v78.75c0,6.04,4.896,10.938,10.938,10.938
			s10.938-4.897,10.938-10.938v-78.75C569.688,218.179,564.791,213.281,558.75,213.281z"/>
	</g>
</g>
<g>
	<g>
		<path fill="#0E6CFD" d="M353.125,213.281c-18.093,0-32.813,14.72-32.813,32.813v35c0,18.093,14.72,32.813,32.813,32.813
			s32.813-14.72,32.813-32.813v-35C385.938,228.001,371.218,213.281,353.125,213.281z M364.063,281.094
			c0,6.031-4.907,10.938-10.938,10.938s-10.938-4.906-10.938-10.938v-35c0-6.031,4.907-10.938,10.938-10.938
			s10.938,4.907,10.938,10.938V281.094z"/>
	</g>
</g>
<g>
	<g>
		<path fill="#0E6CFD" d="M493.125,213.281c-18.093,0-32.813,14.72-32.813,32.813v35c0,18.093,14.72,32.813,32.813,32.813
			s32.813-14.72,32.813-32.813v-35C525.938,228.001,511.218,213.281,493.125,213.281z M504.063,281.094
			c0,6.031-4.906,10.938-10.938,10.938s-10.938-4.906-10.938-10.938v-35c0-6.031,4.906-10.938,10.938-10.938
			s10.938,4.907,10.938,10.938V281.094z"/>
	</g>
</g>
<g>
	<g>
		<path fill="#0E6CFD" d="M690,213.281c-6.041,0-10.938,4.898-10.938,10.938v78.75c0,6.04,4.896,10.938,10.938,10.938
			s10.938-4.897,10.938-10.938v-78.75C700.938,218.179,696.041,213.281,690,213.281z"/>
	</g>
</g>
<g>
	<g>
		<path fill="#0E6CFD" d="M624.375,213.281c-18.093,0-32.813,14.72-32.813,32.813v35c0,18.093,14.72,32.813,32.813,32.813
			s32.813-14.72,32.813-32.813v-35C657.188,228.001,642.468,213.281,624.375,213.281z M635.313,281.094
			c0,6.031-4.906,10.938-10.938,10.938s-10.938-4.906-10.938-10.938v-35c0-6.031,4.906-10.938,10.938-10.938
			s10.938,4.907,10.938,10.938V281.094z"/>
	</g>
</g>
<g>
	<g>
		<path fill="#0E6CFD" d="M262.42,233.449c-2.035-2.045-4.856-3.205-7.733-3.205c-2.876,0.001-5.698,1.16-7.733,3.205
			c-2.034,2.035-3.205,4.856-3.205,7.733s1.17,5.688,3.205,7.733c2.035,2.033,4.856,3.205,7.733,3.205s5.698-1.17,7.733-3.205
			c2.034-2.045,3.205-4.856,3.205-7.733S264.455,235.483,262.42,233.449z"/>
	</g>
</g>
</svg>
