<?xml version="1.0" encoding="utf-8"?>
<!-- Generator: Adobe Illustrator 16.0.0, SVG Export Plug-In . SVG Version: 6.00 Build 0)  -->
<!DOCTYPE svg PUBLIC "-//W3C//DTD SVG 1.1//EN" "http://www.w3.org/Graphics/SVG/1.1/DTD/svg11.dtd">
<svg version="1.1" id="Capa_1" xmlns="http://www.w3.org/2000/svg" xmlns:xlink="http://www.w3.org/1999/xlink" x="0px" y="0px"
	 width="512px" height="512px" viewBox="0 0 512 512" enable-background="new 0 0 512 512" xml:space="preserve">
<path fill-rule="evenodd" clip-rule="evenodd" fill="#0E6CFD" d="M197.561,406.377c23.167-0.001,46.334-0.004,69.502-0.005
	c6.093-2.595,12.484-0.992,18.737-1.334c7.325-0.115,14.65-0.211,21.973-0.041c5.485,0.13,6.761,1.27,6.804,6.622
	c0.091,11.393,0.375,22.787-0.168,34.178c-0.067,0.988-0.26,1.941-0.724,2.83c-0.771,1.146-1.854,1.821-3.187,2.124
	c-7.775,0.884-15.583,0.365-23.375,0.397c-15.111,0.066-30.225,0.109-45.338-0.01c-6.309-0.134-12.618,0.194-18.927-0.052
	c-22.946,0.185-45.892,0.104-68.832,0.076c-5.759-0.275-11.528,0.115-17.279-0.145c-0.897,0.81-2.934-1.775-3.132,1.074
	c2.89,3.019,5.856,5.933,8.844,8.828c4.207,4.302,8.522,8.493,12.731,12.792c2.032,2.074,2.426,4.133,0.24,6.349
	c-8.45,8.565-16.948,17.077-25.523,25.516c-0.828,0.814-2.021,1.044-2.88,1.805c-0.327,0-0.653,0-0.979,0
	c-5.982-3.713-10.061-9.486-15.232-14.077c-3.25-3.361-6.574-6.646-9.921-9.912c-11.323-11.414-22.726-22.748-34.109-34.104
	c-3.274-3.397-6.631-6.716-10.021-10.005c-2.168-2.213-4.39-4.373-6.55-6.591c-4.105-4.215-4.153-5.06-0.083-9.165
	c8.604-8.685,17.277-17.303,25.92-25.946c15.215-15.215,30.419-30.44,45.65-45.637c4.637-4.627,5.028-4.598,9.762,0.08
	c1.971,1.948,3.923,3.913,5.904,5.853c3.75,3.849,7.52,7.678,11.454,11.346c10.415,10.464,10.371,8.313-0.042,18.855
	c-5.431,5.501-10.952,10.913-17.088,17.15c16.804-0.047,32.545,0.044,48.293-0.088C185.849,405.52,191.868,403.646,197.561,406.377z
	"/>
<path fill-rule="evenodd" clip-rule="evenodd" fill="#0E6CFD" d="M301.313,106.985c-23.171-0.001-46.338-0.002-69.506-0.003
	c-6.098,2.652-12.505,1.013-18.77,1.359c-7.808,0.15-15.616,0.188-23.421,0.063c-6.035-0.097-7.278-1.235-7.314-7.122
	c-0.066-11.058-0.302-22.121,0.153-33.18c0.133-3.568,1.971-5.475,5.54-5.692c23.016-0.432,46.035-0.162,69.054-0.176
	c6.303,0.155,12.608-0.186,18.911,0.055c22.59-0.126,45.179-0.146,67.753-0.025c6.435,0.396,12.882,0.294,20.282,0.116
	c-2.873-3.332-5.605-5.746-8.11-8.356c-4.451-4.766-9.189-9.247-13.745-13.908c-1.842-1.884-3.334-3.946-1.004-6.325
	c8.884-9.076,17.604-18.318,27.085-26.79c0.466-0.416,1.165-0.568,1.662-1.002c0.328,0,0.653,0,0.98,0
	c6.313,4.037,10.71,10.135,16.206,15.05c3.251,3.364,6.578,6.65,9.927,9.917c11.324,11.416,22.728,22.75,34.109,34.105
	c3.274,3.4,6.632,6.718,10.02,10.009c1.721,1.742,3.462,3.464,5.18,5.207c4.683,4.757,4.668,5.331-0.161,10.23
	c-0.345,0.348-0.691,0.693-1.038,1.039c-22.964,22.963-45.925,45.929-68.891,68.889c-5.83,5.828-5.841,5.822-11.509,0.17
	c-1.387-1.383-2.786-2.754-4.18-4.13c-3.745-3.846-7.514-7.67-11.442-11.337c-1.529-1.469-3.021-2.971-4.515-4.473
	c-5.676-5.702-5.684-6.078-0.159-11.649c6.647-6.701,13.391-13.306,20.79-20.884c-16.033,0.059-31.175-0.04-46.33,0.097
	C313.01,107.855,306.992,109.753,301.313,106.985z"/>
<path fill-rule="evenodd" clip-rule="evenodd" fill="#0E6CFD" d="M220.987,275.526c-16.802-6.166-28.148-17.772-34.378-34.48
	c-3.68-4.752-3.555-10.16-2.697-15.692c1.076-8.039,1.804-16.087,5.553-23.578c7.085-14.152,17.904-23.777,33.087-28.279
	c3.187-0.945,4.799-2.098,4.534-5.844c-0.414-5.843-0.13-11.735-0.143-17.604c6.253-1.251,12.573-0.264,18.856-0.568
	c5.807-0.279,11.602,0.297,17.437-0.862c6.258-1.243,8.053,0.813,8.22,7.856c0.256,2.44,0.166,4.896,0.057,7.333
	c-0.172,3.801,1.577,5.217,5.256,5.189c8.811-0.069,17.623-0.035,26.437-0.016c10.828,0.023,11.628,0.861,11.327,11.838
	c-0.024,0.817-0.019,1.632,0.046,2.448c-0.468,6.2,1.462,12.6-1.542,18.587c-0.498,3.783-0.362,7.572-0.086,11.361
	c-0.522,1.228-1.627,0.784-2.53,0.855c-21.415,1.691-42.868,0.685-64.303,0.926c-2.756,0.031-5.536-0.303-8.248,0.422
	c-6.113,1.51-8.902,4.124-9.137,8.591c-0.286,5.354,3.781,9.456,10.05,9.7c7.821,0.304,15.657,0,23.488,0.115
	c5.202,1.318,11.075,0.351,15.438,4.519c15.773,6.635,26.73,17.88,32.578,34.017c3.541,5.455,4.309,11.327,2.639,17.564
	c-1.186,7.318-2.025,14.654-5.417,21.494c-7.084,14.286-17.969,23.996-33.29,28.448c-3.345,0.972-4.589,2.355-4.376,5.911
	c0.344,5.828,0.108,11.688,0.118,17.536c-5.759,1.291-11.594,0.48-17.388,0.531c-6.806,0.061-13.565,0.468-20.346,1.01
	c-5.181,0.413-6.03-0.811-6.753-6.016c-0.292-3.407-0.171-6.831-0.076-10.24c0.106-3.775-1.564-5.213-5.24-5.186
	c-8.787,0.066-17.576,0.028-26.364,0.018c-11.436-0.015-11.436-0.015-11.455-11.321c0.452-6.214-1.459-12.623,1.534-18.626
	c0.511-4.436,0.367-8.879,0.088-13.32c0.524-1.226,1.627-0.794,2.53-0.851c21.41-1.342,42.845-0.863,64.275-0.933
	c2.754-0.009,5.533,0.303,8.245-0.41c4.754-0.684,8.297-2.863,9.103-7.965c0.854-5.402-3.384-10.026-9.692-10.319
	c-7.273-0.34-14.564-0.084-21.852-0.079C231.27,278.643,225.459,279.634,220.987,275.526z"/>
</svg>
