<?xml version="1.0" encoding="utf-8"?>
<!-- Generator: Adobe Illustrator 21.0.0, SVG Export Plug-In . SVG Version: 6.00 Build 0)  -->
<svg version="1.1" id="Layer_1" xmlns="http://www.w3.org/2000/svg" xmlns:xlink="http://www.w3.org/1999/xlink" x="0px" y="0px"
	 viewBox="0 0 512 512" style="enable-background:new 0 0 512 512;" xml:space="preserve">
<style type="text/css">
	.st0{fill:#0E6CFD;}
</style>
<g transform="translate(1)">
	<g>
		<g>
			<path class="st0" d="M68.1,4.3c-18.8,0-35.8,6.8-48.6,19.6C5.8,37.5-1,54.6-1,72.5c0,18.8,7.7,35.8,20.5,48.6
				s30.7,20.5,47.8,19.6c0,0,0.9,0,1.7,0c17.1,0,33.3-6.8,46.1-19.6s20.5-29.9,20.5-48.6c0.9-17.9-6.8-35-19.6-47.8
				C103.1,11.1,86,4.3,68.1,4.3z M103.1,109.2c-9.4,9.4-22.2,15.4-35.8,14.5c-12.8,0-26.5-5.1-35.8-14.5
				c-10.2-9.4-15.4-23-15.4-36.7s5.1-26.5,15.4-36.7c9.4-9.4,22.2-14.5,36.7-14.5c12.8,0,25.6,5.1,35,14.5
				c10.2,10.2,15.4,23,15.4,36.7S113.3,99.8,103.1,109.2z"/>
			<path class="st0" d="M101.4,157.9H32.3c-13.7,0-24.7,11.1-24.7,25.6v298.7c0,13.7,11.9,25.6,25.6,25.6h68.3
				c13.7,0,25.6-11.9,25.6-24.7V183.5C127,169.8,115.1,157.9,101.4,157.9z M109.9,483c0,4.3-4.3,7.7-8.5,7.7H33.1
				c-4.3,0-8.5-4.3-8.5-8.5V183.5c0-4.3,3.4-8.5,7.7-8.5h69.1c4.3,0,8.5,4.3,8.5,8.5V483z"/>
			<path class="st0" d="M391.5,149.3h-17.9c-33.3,0-64.9,14.5-85.3,37.5v-11.9c0-8.5-8.5-17.1-17.1-17.1h-85.3
				c-7.7,0-17.1,6.8-17.1,16.2v318.3c0,9.4,9.4,15.4,17.1,15.4h93.9c7.7,0,17.1-6,17.1-15.4V308.1c0-28.2,20.5-50.3,46.9-50.3
				c13.7,0,26.5,5.1,35.8,14.5c8.5,7.7,11.9,19.6,11.9,35v183.5c0,8.5,8.5,17.1,17.1,17.1h85.3c8.5,0,17.1-8.5,17.1-17.1V270.5
				C511,202.2,458.9,149.3,391.5,149.3z M493.9,489.8l-0.9,0.9h-83.6l-0.9-183.5c0-20.5-5.1-35.8-16.2-46.9
				c-12.8-12.8-29.9-19.6-47.8-19.6c-35.8,0.9-64,29.9-64,67.4v182.6h-93.9V174.9h84.5l0.9,0.9v53.8l23-23l0.9-0.9
				c17.1-23.9,46.9-39.3,78.5-39.3h17.9c57.2,0,101.5,46.1,101.5,104.1V489.8z"/>
		</g>
	</g>
</g>
</svg>
