<?xml version="1.0" encoding="utf-8"?>
<!-- Generator: Adobe Illustrator 21.0.0, SVG Export Plug-In . SVG Version: 6.00 Build 0)  -->
<svg version="1.1" id="Capa_1" xmlns="http://www.w3.org/2000/svg" xmlns:xlink="http://www.w3.org/1999/xlink" x="0px" y="0px"
	 viewBox="0 0 438.5 438.5" style="enable-background:new 0 0 438.5 438.5;" xml:space="preserve">
<style type="text/css">
	.st0{fill:none;stroke:#0E6CFD;stroke-width:15;stroke-miterlimit:10;}
</style>
<g>
	<g>
		<path class="st0" d="M219.3,219.3c29,0,53.8-10.3,74.3-30.8c20.5-20.5,30.8-45.3,30.8-74.3c0-29-10.3-53.8-30.8-74.3
			C273.1,19.3,248.3,9,219.3,9s-53.8,10.3-74.3,30.8c-20.5,20.5-30.8,45.3-30.8,74.3c0,29,10.3,53.8,30.8,74.3
			C165.5,209,190.2,219.3,219.3,219.3z"/>
		<path class="st0" d="M411,330.3c-0.6-9.2-1.9-19.2-3.8-29.8c-1.9-10.7-4.3-20.6-7.3-29.7c-2.9-9.1-6.8-18-11.8-26.7
			c-4.9-8.7-10.6-16.1-17-22.2c-6.4-6.1-14.2-11-23.4-14.6c-9.2-3.6-19.4-5.5-30.5-5.5c-1.6,0-5.5,2-11.5,5.9
			c-6,3.9-12.8,8.3-20.4,13.1c-7.6,4.8-17.4,9.2-29.6,13.1c-12.1,3.9-24.3,5.9-36.6,5.9c-12.2,0-24.4-2-36.5-5.9
			c-12.1-3.9-22-8.3-29.6-13.1c-7.6-4.8-14.4-9.2-20.4-13.1c-6-3.9-9.9-5.9-11.5-5.9c-11.1,0-21.3,1.8-30.5,5.5
			c-9.2,3.6-17,8.5-23.4,14.6c-6.4,6.1-12,13.5-17,22.2c-4.9,8.7-8.8,17.6-11.8,26.7c-2.9,9.1-5.3,19-7.3,29.7
			c-1.9,10.7-3.2,20.6-3.8,29.8c-0.6,9.2-1,18.7-1,28.3c0,21.9,6.7,39.2,20,51.9c13.3,12.7,31,19,53.1,19h239.3
			c22.1,0,39.8-6.3,53.1-19c13.3-12.7,20-30,20-51.9C412,348.9,411.7,339.5,411,330.3z"/>
	</g>
</g>
</svg>
