<?xml version="1.0" encoding="utf-8"?>
<!-- Generator: Adobe Illustrator 21.0.0, SVG Export Plug-In . SVG Version: 6.00 Build 0)  -->
<svg version="1.1" id="Capa_1" xmlns="http://www.w3.org/2000/svg" xmlns:xlink="http://www.w3.org/1999/xlink" x="0px" y="0px"
	 viewBox="0 0 438.5 438.5" style="enable-background:new 0 0 438.5 438.5;" xml:space="preserve">
<style type="text/css">
	.st0{fill:none;stroke:#0E6CFD;stroke-width:15;stroke-miterlimit:10;}
</style>
<g>
	<g>
		<path class="st0" d="M58.3,425C33.9,425,14,405.1,14,380.7c0-13.4,6-25.9,16.3-34.3l94.5-87.3c-15.4-25.4-23.5-54.4-23.5-84.3
			C101.4,85,174.4,12,264.2,12C354,12,427,85,427,174.8c0,89.8-73,162.8-162.8,162.8c-25.9,0-51.6-6.2-74.5-18l-99.7,92
			C81.8,420.1,70.5,425,58.3,425z M264.2,287.7c-62.2,0-112.9-50.6-112.9-112.9c0-62.2,50.6-112.9,112.9-112.9
			c62.3,0,112.9,50.6,112.9,112.9C377.1,237.1,326.4,287.7,264.2,287.7z"/>
	</g>
</g>
</svg>
