<?xml version="1.0" encoding="utf-8"?>
<!-- Generator: Adobe Illustrator 21.0.0, SVG Export Plug-In . SVG Version: 6.00 Build 0)  -->
<svg version="1.1" id="Capa_1" xmlns="http://www.w3.org/2000/svg" xmlns:xlink="http://www.w3.org/1999/xlink" x="0px" y="0px"
	 viewBox="0 0 400 220" style="enable-background:new 0 0 400 220;" xml:space="preserve">
<style type="text/css">
	.st0{fill:#0E6CFD;}
</style>
<g>
	<g>
		<path class="st0" d="M311.5,24.6c-4.8-4.8-12.5-4.8-17.3,0s-4.8,12.5,0,17.3l55.9,55.9H20.3c-6.8,0-12.2,5.5-12.2,12.2
			c0,6.8,5.5,12.3,12.2,12.3H350l-55.9,55.9c-4.8,4.8-4.8,12.5,0,17.3c2.4,2.4,5.5,3.6,8.7,3.6s6.3-1.2,8.7-3.6l76.8-76.8
			c2.3-2.3,3.6-5.4,3.6-8.7c0-3.2-1.3-6.4-3.6-8.7L311.5,24.6z"/>
	</g>
</g>
</svg>
