<?xml version="1.0" encoding="utf-8"?>
<!-- Generator: Adobe Illustrator 21.0.0, SVG Export Plug-In . SVG Version: 6.00 Build 0)  -->
<svg version="1.1" id="Capa_1" xmlns="http://www.w3.org/2000/svg" xmlns:xlink="http://www.w3.org/1999/xlink" x="0px" y="0px"
	 viewBox="0 0 288.9 288.9" style="enable-background:new 0 0 288.9 288.9;" xml:space="preserve">
<style type="text/css">
	.st0{fill:#0E6CFD;}
</style>
<g>
	<g>
		<path class="st0" d="M281.5,73c-0.1-1.6-1-3-2.4-3.7L194.6,27c-2-1-4.4-0.3-5.7,1.5l-57.1,87.8l-29.4-45.5c-0.4-0.7-1-1.2-1.7-1.5
			L16.4,27C13.5,25.6,10,27.8,10,31v42.2c0,2.4,2,4.4,4.4,4.4c2.4,0,4.4-2,4.4-4.4V38.1l75.6,37.8v177.8l-75.6-37.8V92
			c0-2.4-2-4.4-4.4-4.4c-2.4,0-4.4,2-4.4,4.4v126.7c0,1.7,0.9,3.2,2.4,3.9l84.4,42.2c2.9,1.4,6.4-0.7,6.4-3.9v-82l171.9,86
			c2.9,1.4,6.4-0.7,6.4-3.9V73.2C281.5,73.1,281.5,73.1,281.5,73z M103.2,169V88.1l77,119.4L103.2,169z M272.7,253.7l-73.9-36.9
			l57.6-99.2c1.2-2.1,0.5-4.8-1.6-6c-2.1-1.2-4.8-0.5-6,1.6l-56.3,97l-55.3-85.7l57.1-87.8L271,75l-14,24.1c-1.2,2.1-0.5,4.8,1.6,6
			c2.1,1.2,4.8,0.5,6-1.6l8.1-14V253.7z"/>
	</g>
</g>
</svg>
