<?xml version="1.0" encoding="utf-8"?>
<!-- Generator: Adobe Illustrator 19.1.0, SVG Export Plug-In . SVG Version: 6.00 Build 0)  -->
<svg version="1.1" id="Capa_1" xmlns="http://www.w3.org/2000/svg" xmlns:xlink="http://www.w3.org/1999/xlink" x="0px" y="0px"
	 viewBox="-153 277 288.9 288.9" style="enable-background:new -153 277 288.9 288.9;" xml:space="preserve">
<style type="text/css">
	.st0{fill:none;stroke:#0E6CFD;stroke-width:10;stroke-miterlimit:10;}
</style>
<g>
	<path class="st0" d="M122.8,428.2c-5.3-11.8-19.1-17.1-30.9-11.8l-11.2,5L51.9,357l11.2-5c11.8-5.3,17.1-19.1,11.8-30.9
		C69.6,309.3,55.8,304,44,309.3l-11.2,5l-5-11.2c-5.3-11.8-19.1-17-30.9-11.8c-11.8,5.3-17,19.1-11.8,30.9l5,11.2l-64.4,28.8
		l-5-11.2c-5.3-11.8-19.1-17-30.9-11.8c-11.8,5.3-17,19.1-11.8,30.9l5,11.2l-11.2,5c-11.8,5.3-17.1,19.1-11.8,30.8
		c5.3,11.8,19.1,17.1,30.9,11.8l11.2-5l28.8,64.4l-11.2,5c-11.8,5.3-17,19.1-11.8,30.9C-86.8,536-73,541.3-61.2,536l11.2-5l5,11.2
		c5.3,11.8,19.1,17.1,30.9,11.8s17-19.1,11.8-30.8l-5-11.2l64.5-28.9l5,11.2c5.3,11.8,19.1,17.1,30.9,11.8
		c11.8-5.3,17.1-19.1,11.8-30.9l-5-11.2l11.2-5C122.8,453.7,128.1,439.9,122.8,428.2z M-26.3,469.3l-28.8-64.4l64.4-28.8l28.8,64.4
		L-26.3,469.3z"/>
</g>
</svg>
