<?xml version="1.0" encoding="utf-8"?>
<!-- Generator: Adobe Illustrator 19.1.0, SVG Export Plug-In . SVG Version: 6.00 Build 0)  -->
<svg version="1.1" id="Capa_1" xmlns="http://www.w3.org/2000/svg" xmlns:xlink="http://www.w3.org/1999/xlink" x="0px" y="0px"
	 viewBox="-153 277 288.9 288.9" style="enable-background:new -153 277 288.9 288.9;" xml:space="preserve">
<style type="text/css">
	.st0{fill:none;stroke:#0E6CFD;stroke-width:10;stroke-miterlimit:10;}
</style>
<g id="XMLID_496_">
	<path id="XMLID_497_" class="st0" d="M-132.5,409.7l59.2,22.1l22.9,73.7c1.5,4.7,7.2,6.5,11.1,3.3l33-26.9c3.4-2.8,8.4-3,12-0.4
		l59.6,43.2c4.1,3,9.9,0.7,10.9-4.3l43.7-209.8c1.1-5.5-4.2-9.9-9.3-8l-243.1,93.9C-138.6,399-138.6,407.5-132.5,409.7z
		 M-46.1,420.1l115.7-71.3c2-1.3,4.3,1.6,2.4,3.2l-95.5,88.8c-3.3,3.1-5.5,7.3-6.1,11.8l-3.2,24.1c-0.5,3.2-5,3.5-5.8,0.5
		l-12.5-43.9C-52.6,428.2-50.6,422.9-46.1,420.1z"/>
</g>
</svg>
