<?xml version="1.0" encoding="utf-8"?>
<!-- Generator: Adobe Illustrator 19.1.0, SVG Export Plug-In . SVG Version: 6.00 Build 0)  -->
<svg version="1.1" id="Capa_1" xmlns="http://www.w3.org/2000/svg" xmlns:xlink="http://www.w3.org/1999/xlink" x="0px" y="0px"
	 viewBox="-153 277 288.9 288.9" style="enable-background:new -153 277 288.9 288.9;" xml:space="preserve">
<style type="text/css">
	.st0{fill:none;stroke:#0E6CFD;stroke-width:10;stroke-miterlimit:10;}
</style>
<g>
	<g>
		<path class="st0" d="M116,347.2c-9.1,4-18.8,6.7-29,7.9c10.4-6.2,18.4-16.1,22.2-27.9c-9.8,5.8-20.6,10-32.1,12.3
			c-9.2-9.8-22.3-15.9-36.8-15.9c-27.9,0-50.5,22.6-50.5,50.5c0,4,0.4,7.8,1.3,11.5c-41.9-2.1-79.1-22.2-104-52.7
			c-4.4,7.4-6.8,16.1-6.8,25.4c0,17.5,8.9,33,22.4,42c-8.3-0.3-16-2.6-22.9-6.3v0.6c0,24.4,17.4,44.8,40.5,49.5
			c-4.2,1.1-8.7,1.8-13.3,1.8c-3.3,0-6.4-0.3-9.5-0.9c6.4,20.1,25.1,34.6,47.1,35c-17.3,13.5-39,21.6-62.7,21.6
			c-4.1,0-8.1-0.2-12-0.7c22.3,14.3,48.9,22.7,77.4,22.7c92.8,0,143.6-76.9,143.6-143.6l-0.2-6.5C100.7,366.2,109.3,357.3,116,347.2
			z"/>
	</g>
</g>
</svg>
