<?xml version="1.0" encoding="utf-8"?>
<!-- Generator: Adobe Illustrator 19.1.0, SVG Export Plug-In . SVG Version: 6.00 Build 0)  -->
<svg version="1.1" id="Capa_1" xmlns="http://www.w3.org/2000/svg" xmlns:xlink="http://www.w3.org/1999/xlink" x="0px" y="0px"
	 viewBox="-41 164.9 512 512" style="enable-background:new -41 164.9 512 512;" xml:space="preserve">
<style type="text/css">
	.st0{fill:none;stroke:#0E6CFD;stroke-width:15;stroke-miterlimit:10;}
	.st1{fill:#0E6CFD;}
</style>
<g>
	<path class="st0" d="M215,657.2c-130.3,0-236.3-106-236.3-236.3S84.7,184.6,215,184.6s236.3,106,236.3,236.3S345.3,657.2,215,657.2
		z"/>
	<path class="st1" d="M310.6,325.3c-3.8-3.8-10.1-3.8-13.9,0L215,407l-81.7-81.7c-3.8-3.8-10.1-3.8-13.9,0c-3.8,3.8-3.8,10.1,0,13.9
		l81.7,81.7l-81.7,81.7c-3.8,3.8-3.8,10.1,0,13.9c1.9,1.9,4.4,2.9,7,2.9s5-1,7-2.9l81.7-81.7l81.7,81.7c1.9,1.9,4.4,2.9,7,2.9
		c2.5,0,5-1,7-2.9c3.8-3.8,3.8-10.1,0-13.9l-81.7-81.7l81.7-81.7C314.4,335.4,314.4,329.2,310.6,325.3z"/>
</g>
</svg>
