<?xml version="1.0" encoding="iso-8859-1"?>
<!-- Generator: Adobe Illustrator 19.0.0, SVG Export Plug-In . SVG Version: 6.00 Build 0)  -->
<svg version="1.1" id="Layer_1" xmlns="http://www.w3.org/2000/svg" xmlns:xlink="http://www.w3.org/1999/xlink" x="0px" y="0px"
	 viewBox="0 0 496 496" style="enable-background:new 0 0 496 496;" xml:space="preserve">
<g>
	<g>
		<g>
			<path d="M248,152c-52.936,0-96,43.064-96,96c0,52.936,43.064,96,96,96c18,0,35.552-5.016,50.768-14.496l-8.472-13.576
				C277.632,323.824,263.008,328,248,328c-44.112,0-80-35.888-80-80s35.888-80,80-80s80,35.888,80,80
				c0,23.784-10.488,46.168-28.76,61.44l10.264,12.28C331.432,303.4,344,276.528,344,248C344,195.064,300.936,152,248,152z"/>
			<path d="M272,202.808V184h-16v16h-16v-16h-16v16h-16v40v16v40h16v16h16v-16h16v16h16v-18.808c9.424-4.512,16-14.064,16-25.192
				c0-7.84-3.256-14.912-8.464-20c5.208-5.088,8.464-12.16,8.464-20C288,216.872,281.424,207.32,272,202.808z M260,280h-36v-24h36
				c6.616,0,12,5.384,12,12C272,274.616,266.616,280,260,280z M260,240h-36v-24h36c6.616,0,12,5.384,12,12
				C272,234.616,266.616,240,260,240z"/>
			<path d="M472,265.136V62.864c13.768-3.576,24-15.992,24-30.864c0-17.648-14.352-32-32-32s-32,14.352-32,32
				c0,0.296,0.08,0.576,0.088,0.872l-121.48,14.296C306.744,33.832,294.56,24,280,24c-14.76,0-27.088,10.088-30.768,23.696
				l-170.272-7.4C75.488,26.376,62.976,16,48,16c-17.648,0-32,14.352-32,32s14.352,32,32,32c0.808,0,1.568-0.176,2.36-0.24
				l20.08,53.536C61.76,139.024,56,148.84,56,160c0,10.92,5.512,20.56,13.888,26.336l-34.976,69.96
				C33.936,256.208,32.992,256,32,256c-17.648,0-32,14.352-32,32s14.352,32,32,32c1.168,0,2.272-0.224,3.416-0.344l65.976,102.624
				C97.992,427.36,96,433.448,96,440c0,17.648,14.352,32,32,32c11.584,0,21.656-6.248,27.272-15.496l109.584,14.608
				C268.112,485.336,280.808,496,296,496c15.272,0,28.032-10.76,31.2-25.088l85.6-14.272c5.632,9.176,15.664,15.36,27.2,15.36
				c17.648,0,32-14.352,32-32c0-11.536-6.184-21.568-15.36-27.2l14.272-85.6C485.24,324.032,496,311.272,496,296
				C496,281.128,485.768,268.712,472,265.136z M464,16c8.824,0,16,7.176,16,16s-7.176,16-16,16c-8.824,0-16-7.176-16-16
				S455.176,16,464,16z M449.408,60.32c2.08,1.072,4.272,1.944,6.592,2.544v202.272c-1.256,0.328-2.504,0.68-3.696,1.152
				l-35.112-119.384C426.072,141.208,432,131.312,432,120c0-8.176-3.176-15.568-8.232-21.224L449.408,60.32z M400,152
				c0.672,0,1.296-0.16,1.96-0.2l36.72,124.856c-2.048,2.672-3.648,5.648-4.776,8.88l-59.288-19.76
				C375.432,259.952,376,254.048,376,248c0-26.28-7.984-50.72-21.616-71.072l29.464-29.464C388.608,150.28,394.08,152,400,152z
				 M384,120c0-8.824,7.176-16,16-16c8.824,0,16,7.176,16,16s-7.176,16-16,16C391.176,136,384,128.824,384,120z M360,248
				c0,61.76-50.24,112-112,112s-112-50.24-112-112s50.24-112,112-112S360,186.24,360,248z M371.384,281.552L432.6,301.96
				c1.432,7.568,5.592,14.096,11.344,18.776L393.48,371.2l-39.56-51.432C361.752,308.248,367.632,295.336,371.384,281.552z
				 M311.112,63.224l125.584-14.776c0.224,0.368,0.384,0.784,0.624,1.152l-26.864,40.296C407.16,88.752,403.68,88,400,88
				c-8.272,0-15.752,3.24-21.44,8.408L309.336,68.72C310.096,66.968,310.664,65.12,311.112,63.224z M369.72,110.104
				c-1.024,3.136-1.72,6.424-1.72,9.896c0,5.92,1.72,11.392,4.536,16.152l-28.024,28.024c-16.584-19.064-38.672-33.128-63.8-39.784
				l6.2-37.192c4.392-0.968,8.4-2.88,11.912-5.456L369.72,110.104z M280,40c8.824,0,16,7.176,16,16s-7.176,16-16,16
				c-8.824,0-16-7.176-16-16S271.176,40,280,40z M261.512,82.024c2.792,1.992,5.944,3.448,9.296,4.464l-5.792,34.768
				C259.432,120.52,253.784,120,248,120c-51.584,0-96.024,30.736-116.272,74.8l-19.248-14.44c4.624-5.544,7.52-12.584,7.52-20.36
				c0-3.552-0.72-6.904-1.784-10.096L261.512,82.024z M48,64c-8.824,0-16-7.176-16-16s7.176-16,16-16c8.824,0,16,7.176,16,16
				S56.824,64,48,64z M65.56,74.704c6.432-4.248,11.144-10.776,13.208-18.4l170.272,7.4c0.488,1.944,1.12,3.824,1.944,5.608
				L109.4,136.376C103.72,131.224,96.256,128,88,128c-0.808,0-1.568,0.176-2.36,0.24L65.56,74.704z M104,160c0,8.824-7.176,16-16,16
				s-16-7.176-16-16c0-8.824,7.176-16,16-16S104,151.176,104,160z M32,304c-8.824,0-16-7.176-16-16c0-8.824,7.176-16,16-16
				s16,7.176,16,16C48,296.824,40.824,304,32,304z M85.096,191.704C86.064,191.792,87.008,192,88,192
				c4.144,0,8.08-0.856,11.72-2.296L99.2,190.4l26.488,19.864C122,222.2,120,234.872,120,248c0,45.24,23.656,84.984,59.192,107.752
				l-7.048,9.392L63.648,291.52C63.776,290.352,64,289.208,64,288c0-10.92-5.512-20.56-13.888-26.336L85.096,191.704z M128,456
				c-8.824,0-16-7.176-16-16c0-8.824,7.176-16,16-16c8.824,0,16,7.176,16,16C144,448.824,136.824,456,128,456z M138.56,409.928
				C135.232,408.76,131.72,408,128,408c-5.232,0-10.096,1.376-14.456,3.608l-62.848-97.76c2.704-1.952,5.064-4.32,7.04-7.008
				l104.8,71.112L138.56,409.928z M265.424,455.056l-105.528-14.072c0.016-0.336,0.104-0.648,0.104-0.984
				c0-8.128-3.144-15.48-8.152-21.128l23.936-31.92l91.936,62.384C266.776,451.152,266.016,453.056,265.424,455.056z
				 M185.392,374.136l7.936-10.576C209.936,371.456,228.424,376,248,376c11.464,0,22.528-1.656,33.112-4.496l6.184,61.856
				c-3.16,0.896-6.16,2.16-8.84,3.928L185.392,374.136z M296,480c-8.824,0-16-7.176-16-16c0-8.824,7.176-16,16-16
				c8.824,0,16,7.176,16,16C312,472.824,304.824,480,296,480z M320.736,443.952c-4.384-5.4-10.416-9.368-17.4-11.024l-6.664-66.6
				c18.168-7.504,34.168-19.112,47.016-33.608l38.384,49.896L320.736,443.952z M408,440c0,0.416,0.104,0.792,0.12,1.2
				l-74.416,12.408l58.2-58.2l21.144,27.488C409.896,427.848,408,433.696,408,440z M403.32,383.992l50.288-50.288l-12.4,74.416
				c-0.416-0.016-0.792-0.12-1.208-0.12c-5.512,0-10.616,1.528-15.144,3.984L403.32,383.992z M440,456c-8.824,0-16-7.176-16-16
				c0-8.824,7.176-16,16-16c8.824,0,16,7.176,16,16C456,448.824,448.824,456,440,456z M464,312c-8.824,0-16-7.176-16-16
				c0-8.824,7.176-16,16-16c8.824,0,16,7.176,16,16C480,304.824,472.824,312,464,312z"/>
		</g>
	</g>
</g>
<g>
</g>
<g>
</g>
<g>
</g>
<g>
</g>
<g>
</g>
<g>
</g>
<g>
</g>
<g>
</g>
<g>
</g>
<g>
</g>
<g>
</g>
<g>
</g>
<g>
</g>
<g>
</g>
<g>
</g>
</svg>
