<?xml version="1.0" encoding="utf-8"?>
<!-- Generator: Adobe Illustrator 19.1.0, SVG Export Plug-In . SVG Version: 6.00 Build 0)  -->
<svg version="1.1" id="Layer_1" xmlns="http://www.w3.org/2000/svg" xmlns:xlink="http://www.w3.org/1999/xlink" x="0px" y="0px"
	 viewBox="-43 166.9 508 508" style="enable-background:new -43 166.9 508 508;" xml:space="preserve">
<style type="text/css">
	.st0{fill:#62CF73;}
	.st1{fill:#62B767;}
	.st2{fill:#E84F4F;}
	.st3{fill:#E6E9EE;}
	.st4{fill:#324A5E;}
	.st5{fill:#FFFFFF;}
	.st6{fill:#FFDC64;}
	.st7{fill:#FFC850;}
	.st8{fill:#FFF082;}
	.st9{fill:#E7B452;}
</style>
<circle class="st0" cx="211" cy="420.9" r="254"/>
<path class="st1" d="M325,444.2l-23.3,50.2l-2.5,1.2l-17.5-1.2l-12.9-3.5l-32.9-86.9L172,414.8l-4.4-43.7L135,422.7l-51.5,38.6
	l-47.7,54.4l138.5,156.6c12,1.7,24.3,2.7,36.7,2.7c81.9,0,154.7-38.8,201.2-98.9L387,537.3L325,444.2z"/>
<path class="st2" d="M255.8,515.7h-220v-88c0-14.4,10.4-26.4,24.4-28.8c1.6-0.4,54.4-13.2,54.4-13.2l29.6,0.8h32.4
	c0,0,53.2,12,54.8,12.4c13.6,2.4,24,14.4,24,28.8L255.8,515.7L255.8,515.7z"/>
<path class="st3" d="M176.6,386.5c-3.2-3.2-5.2-7.6-5.2-12.4v-28.4h-53.2v28.4c0,3.6-1.2,8.4-3.6,11.2c6,8.8,16,22,29.6,22.4
	C153.8,408.5,164.6,400.5,176.6,386.5z"/>
<g>
	<polygon class="st4" points="138.2,428.5 132.6,418.5 138.2,408.1 150.2,408.1 156.2,418.5 150.2,428.5 	"/>
	<polygon class="st4" points="157.8,477.3 144.6,502.1 130.6,477.3 138.2,428.5 150.2,428.5 	"/>
</g>
<g>
	
		<ellipse transform="matrix(-6.890161e-002 0.9976 -0.9976 -6.890161e-002 518.462 140.2512)" class="st5" cx="193.8" cy="312.1" rx="16.8" ry="7.6"/>
	
		<ellipse transform="matrix(-6.880210e-002 -0.9976 0.9976 -6.880210e-002 -206.44 430.7926)" class="st5" cx="97.8" cy="311.7" rx="16.8" ry="7.6"/>
	<path class="st5" d="M193.4,294.9c0-26.4-21.2-47.6-47.6-47.6l0,0l0,0l0,0c-26,0-47.2,21.6-47.2,47.6c0,0.8,0,12.4,0,17.6
		c0,36,26.8,65.2,47.6,65.2c18,0,47.6-29.2,47.6-65.2C193.4,307.3,193.4,295.7,193.4,294.9z"/>
</g>
<g>
	<path class="st4" d="M101.4,316.9c-1.6-12.4-2.4-24.8-2.8-37.2c0-4.4,0-8.8,0.8-12.8c2.8-9.6,11.2-16.8,20.4-20.4
		c9.2-3.6,19.6-1.6,29.6-2c6.8-0.4,13.6-0.4,20.4,1.2c6.8,1.6,13.2,5.2,16.4,11.2c2.4,4.4,3.6,6.8,4,12c0.8,5.2,1.6,10.4,2,16
		c1.2,12.8,0,25.6-3.2,38.4c0,0.8-0.4,1.2-0.8,1.6c-1.2,1.2-3.2,0.4-4-0.8c-0.8-1.2-0.8-3.2-0.8-4.8c0.4-8.4,0-16.4-0.8-24.8
		c-0.8-6-1.6-12-5.6-16.4c-5.6-6.4-15.2-1.6-25.6,2.8c-2.8,1.2-9.6,1.2-12.8,0c-3.6-1.2-14-8.8-17.6-7.6c-8,3.2-12.4,12.4-13.2,21.2
		c-0.8,8.8,0.4,17.6-1.2,26c0,0.8-0.4,1.6-0.8,2c-0.8,1.2-2.8,0.8-4-0.4C101.8,319.7,101.4,318.1,101.4,316.9z"/>
	<polygon class="st4" points="114.6,385.7 127.4,432.9 145.8,408.1 	"/>
	<polygon class="st4" points="145,408.1 163.4,432.9 176.6,386.5 	"/>
</g>
<g>
	<circle class="st6" cx="279.3" cy="494.3" r="67.8"/>
	<circle class="st7" cx="279.3" cy="494.3" r="58.5"/>
	<circle class="st8" cx="279.3" cy="494.3" r="51.5"/>
	<path class="st9" d="M297.4,490.8c2.6-2.7,4.2-6.4,4.2-10.5c0-8.4-6.8-15.2-15.2-15.2h-1.2v-3.5c0-1.9-1.6-3.5-3.5-3.5
		c-1.9,0-3.5,1.6-3.5,3.5v3.5h-4.7v-3.5c0-1.9-1.6-3.5-3.5-3.5c-1.9,0-3.5,1.6-3.5,3.5v3.5h-5.8c-1.9,0-3.5,1.6-3.5,3.5
		c0,1.9,1.6,3.5,3.5,3.5h1.2v44.4h-1.2c-1.9,0-3.5,1.6-3.5,3.5s1.6,3.5,3.5,3.5h5.8v3.5c0,1.9,1.6,3.5,3.5,3.5
		c1.9,0,3.5-1.6,3.5-3.5v-3.5h4.7v3.5c0,1.9,1.6,3.5,3.5,3.5c1.9,0,3.5-1.6,3.5-3.5v-3.5h3.5c9.7,0,17.5-7.9,17.5-17.5
		C306.2,499.5,302.7,493.8,297.4,490.8z M286.4,472.1c4.5,0,8.2,3.7,8.2,8.2s-3.7,8.2-8.2,8.2h-17.5v-16.4L286.4,472.1L286.4,472.1z
		 M288.7,516.6h-19.9v-21.1h17.5h2.3c5.8,0,10.5,4.7,10.5,10.5C299.2,511.8,294.5,516.6,288.7,516.6z"/>
</g>
</svg>
