<?xml version="1.0" encoding="utf-8"?>
<!-- Generator: Adobe Illustrator 19.1.0, SVG Export Plug-In . SVG Version: 6.00 Build 0)  -->
<svg version="1.1" id="Layer_1" xmlns="http://www.w3.org/2000/svg" xmlns:xlink="http://www.w3.org/1999/xlink" x="0px" y="0px"
	 viewBox="-41 164.9 512 512" style="enable-background:new -41 164.9 512 512;" xml:space="preserve">
<style type="text/css">
	.st0{fill:#62CF73;}
	.st1{fill:#62B767;}
	.st2{fill:#E6E6E6;}
	.st3{fill:#CCCCCC;}
	.st4{fill:#E84F4F;}
	.st5{fill:#C94545;}
	.st6{fill:#FBBE00;}
	.st7{fill:#E7A20B;}
</style>
<circle class="st0" cx="215" cy="420.9" r="256"/>
<path class="st1" d="M470.6,436.5c-6.8,113.3-87.3,206.7-194.3,233.2l-196-196l16.5-110.6l71.7-77.6l57.3,57.3l12.7-12.7l52,52
	l19-26.2l26-10.1l11.2-17.8l35.3,35.1l6.8-8.2l82,82L470.6,436.5z"/>
<path class="st2" d="M171,312.9c7,1.9,13.5,4.7,19.4,8l21.1-17.3L238,330l-17.3,21.1c3.6,6.1,6.1,12.7,8,19.4l27.3,2.7v37.4
	l-27.3,2.7c-1.9,7-4.7,13.5-8,19.4l17.3,21.1l-26.4,26.4l-21.1-17.3c-6.1,3.6-12.7,6.1-19.4,8l-2.7,27.3h-37.4l-2.7-27.3
	c-7-1.9-13.5-4.7-19.4-8l-21.1,17.3l-26.4-26.4l17.3-21.1c-3.6-6.1-6.1-12.7-8-19.4l-27.3-2.7v-37.4l27.3-2.7c1.9-7,4.7-13.5,8-19.4
	L61.1,330l26.4-26.4l21.1,17.3c6.1-3.6,12.7-6.1,19.4-8l2.7-27.3h37.4L171,312.9z M149.7,349c23.9,0,43.3,19.4,43.3,43.3
	s-19.4,43.3-43.3,43.3s-43.3-19.4-43.3-43.3S125.8,349,149.7,349z"/>
<path class="st3" d="M171,312.9c7,1.9,13.5,4.7,19.4,8l21.1-17.3L238,330l-17.3,21.1c3.6,6.1,6.1,12.7,8,19.4l27.3,2.7v37.4
	l-27.3,2.7c-1.9,7-4.7,13.5-8,19.4l17.3,21.1l-26.4,26.4l-21.1-17.3c-6.1,3.6-12.7,6.1-19.4,8l-2.7,27.3h-18.6v-63.4l0,0
	c23.9,0,43.3-19.4,43.3-43.3s-19.4-43.3-43.3-43.3l0,0V285h18.6l2.7,27.3L171,312.9L171,312.9z"/>
<path class="st4" d="M296.8,468.7c3.8,1.1,7.4,2.7,10.8,4.4l9.9-8l20.7,20.7l-8.5,9.7c1.9,3.4,3.4,7,4.4,10.8l12.7,1.3V537
	l-12.9,0.8c-1.1,3.8-2.7,7.4-4.4,10.8l8,9.9l-20.7,20.7l-9.7-8.5c-3.4,1.9-7,3.4-10.8,4.4l-1.3,12.7h-29.4l-0.8-12.9
	c-3.8-1.1-7.4-2.7-10.8-4.4l-9.9,8l-20.7-20.7l8.5-9.7c-1.9-3.4-3.4-7-4.4-10.8l-12.7-1.3v-29.4l12.9-0.8c1.1-3.8,2.7-7.4,4.4-10.8
	l-8-9.9l20.7-20.7l9.7,8.5c3.4-1.9,7-3.4,10.8-4.4l1.3-12.7H296L296.8,468.7z M280.7,500.8c11.6,0,21.1,9.5,21.1,21.1
	c0,11.6-9.5,21.1-21.1,21.1s-21.1-9.5-21.1-21.1C259.6,510.3,269.1,500.8,280.7,500.8z"/>
<path class="st5" d="M296.8,468.7c3.8,1.1,7.4,2.7,10.8,4.4l9.9-8l20.7,20.7l-8.5,9.7c1.9,3.4,3.4,7,4.4,10.8l12.7,1.3V537
	l-12.9,0.8c-1.1,3.8-2.7,7.4-4.4,10.8l8,9.9l-20.7,20.7l-9.7-8.5c-3.4,1.9-7,3.4-10.8,4.4l-1.3,12.7h-14v-45
	c11.4-0.2,20.7-9.5,20.7-21.1s-9.3-20.9-20.7-21.1v-45h14.6l0.8,12.9L296.8,468.7z"/>
<path class="st6" d="M348.2,344.2c4.2,1.1,8,2.7,11.6,4.9l12.7-10.4l15.9,15.9L378,367.2c2.1,3.6,3.8,7.6,4.9,11.6l16.5,1.7v22.4
	l-16.5,1.7c-1.1,4.2-2.7,8-4.9,11.6l10.4,12.7l-15.9,15.9l-12.7-10.4c-3.6,2.1-7.6,3.8-11.6,4.9l-1.7,16.5h-22.4l-1.7-16.5
	c-4.2-1.1-8-2.7-11.6-4.9l-12.7,10.4l-15.9-15.9l10.4-12.7c-2.1-3.6-3.8-7.6-4.9-11.6l-16.5-1.7v-22.4l16.5-1.7
	c1.1-4.2,2.7-8,4.9-11.6l-10.4-12.7l15.9-15.9l12.7,10.4c3.6-2.1,7.6-3.8,11.6-4.9l1.7-16.5h22.4L348.2,344.2z M335.3,353
	c21.4,0,38.7,17.3,38.7,38.7s-17.3,38.7-38.7,38.7s-38.7-17.3-38.7-38.7S313.9,353,335.3,353z M335.3,357.9
	c18.6,0,33.8,15.2,33.8,33.8s-15.2,33.8-33.8,33.8s-33.8-15.2-33.8-33.8S316.7,357.9,335.3,357.9z M335.3,365.7
	c14.4,0,26,11.6,26,26s-11.6,26-26,26s-26-11.6-26-26C309.3,377.3,320.9,365.7,335.3,365.7z"/>
<path class="st7" d="M348.2,344.2c4.2,1.1,8,2.7,11.6,4.9l12.7-10.4l15.9,15.9L378,367.2c2.1,3.6,3.8,7.6,4.9,11.6l16.5,1.7v22.4
	l-16.5,1.7c-1.1,4.2-2.7,8-4.9,11.6l10.4,12.7l-15.9,15.9l-12.7-10.4c-3.6,2.1-7.6,3.8-11.6,4.9l-1.7,16.5h-11.2v-25.4
	c21.4,0,38.7-17.3,38.7-38.7S356.6,353,335.3,353v-25.4h11.2L348.2,344.2z M335.3,425.8v-7.8l0,0c14.4,0,26-11.6,26-26
	s-11.6-26-26-26l0,0v-7.8c18.6,0,33.8,15.2,33.8,33.8S353.9,425.8,335.3,425.8z"/>
</svg>
