<?xml version="1.0" encoding="iso-8859-1"?>
<!-- Generator: Adobe Illustrator 19.0.0, SVG Export Plug-In . SVG Version: 6.00 Build 0)  -->
<svg version="1.1" id="Layer_1" xmlns="http://www.w3.org/2000/svg" xmlns:xlink="http://www.w3.org/1999/xlink" x="0px" y="0px"
	 viewBox="0 0 496 496" style="enable-background:new 0 0 496 496;" xml:space="preserve">
<g>
	<g>
		<g>
			<rect x="160" y="144" width="64" height="16"/>
			<rect x="160" y="208" width="64" height="16"/>
			<path d="M64,184h16c0-4.488,0.376-9.208,1.192-14.856l-15.832-2.28C64.432,173.288,64,178.728,64,184z"/>
			<path d="M69.032,149.712l15.336,4.568C97.392,110.544,138.368,80,184,80V64C131.344,64,84.064,99.248,69.032,149.712z"/>
			<path d="M364.664,218.656C366.856,207.256,368,195.648,368,184C368,82.544,285.456,0,184,0S0,82.544,0,184
				c0,79.16,50.744,149.008,124.784,174.128L6.608,496H96h64h32h64h32h64h32h64h48V39.56L364.664,218.656z M16,184
				C16,91.36,91.36,16,184,16s168,75.36,168,168c0,27.312-6.728,54.424-19.448,78.448l-23.28,31.744L294.416,288
				C320.904,259.888,336,222.688,336,184c0-83.816-68.184-152-152-152S32,100.184,32,184c0,69.88,48.832,130.928,115.672,147.424
				l-11.56,13.48C65.184,323.856,16,258.464,16,184z M239.976,184c9.72-7.304,16.024-18.928,16.024-32
				c0-19.312-13.768-35.472-32-39.192V96h-16v16h-32V96h-16v16h-32v144h32v16h16v-16h16v-16h-48V128h72c13.232,0,24,10.768,24,24
				s-10.768,24-24,24h-56v16h56c13.232,0,24,10.768,24,24s-10.768,24-24,24h-8v8v8v5.04l-48.392,56.456
				C95.712,305.864,48,249.296,48,184c0-74.992,61.008-136,136-136s136,61.008,136,136c0,36.632-15.16,71.768-41.528,97.36
				L224,258.664v-3.472c18.232-3.72,32-19.872,32-39.192C256,202.928,249.696,191.304,239.976,184z M96,480H41.392L96,416.288V480z
				 M144,480h-32v-64h32V480z M192,480h-32v-80h-50.04L192,304.288V480z M336,480h-32V336h32V480z M384,480h-32V320h-64v160h-32V344
				h-16v136h-32V312h32v16h16v-32h-56.896l19.184-22.384l96.44,40.184L384,219.344V480z M480,480h-32v-16.008h-16V480h-32V224h32
				v224h16V208h-55.68L480,88.44V480z"/>
		</g>
	</g>
</g>
<g>
</g>
<g>
</g>
<g>
</g>
<g>
</g>
<g>
</g>
<g>
</g>
<g>
</g>
<g>
</g>
<g>
</g>
<g>
</g>
<g>
</g>
<g>
</g>
<g>
</g>
<g>
</g>
<g>
</g>
</svg>
