<?xml version="1.0" encoding="iso-8859-1"?>
<!-- Generator: Adobe Illustrator 19.0.0, SVG Export Plug-In . SVG Version: 6.00 Build 0)  -->
<svg version="1.1" id="Layer_1" xmlns="http://www.w3.org/2000/svg" xmlns:xlink="http://www.w3.org/1999/xlink" x="0px" y="0px"
	 viewBox="0 0 496 496" style="enable-background:new 0 0 496 496;" xml:space="preserve">
<g>
	<g>
		<g>
			<path d="M336,129.616V96h-32V64h16V0H16v48H0v64h32v48h16v32H0v64h16v48h16v32H0v64h32v32H0v64h312c101.456,0,184-82.536,184-184
				C496,218.68,426.152,141.416,336,129.616z M320,112v16.2c-2.656-0.112-5.32-0.2-8-0.2c-26.672,0-52.008,5.752-74.904,16H48v-32
				h16v16h16v-16h16v16h16v-16h16v16h16v-16h16v16h16v-16h16v16h16v-16h16v16h16v-16h16v16h16v-16h16v16h16v-16H320z M208.448,160
				c-5.728,3.92-11.208,8.168-16.448,12.688V160H208.448z M96,176v-16h16v16h16v-16h16v16h16v-16h16v16h12.2
				c-5.496,5.008-10.648,10.368-15.504,16H64v-32h16v16H96z M32,96H16V64h16v16h16V64h16v16h16V64v-8v-8H32V16h16v16h16V16h16v16h16
				V16h16v16h16V16h16v16h16V16h16v16h16V16h16v16h16V16h16v16h16V16h16v16h16V16h16v32H96v8v8v16h16V64h16v16h16V64h16v16h16V64h16
				v16h16V64h16v16h16V64h16v16h16V64h16v32H32z M16,240v-32h16v16h16v-16h16v16h16v-16h16v16h16v-16h16v16h16v-16h16.32
				c-6.88,10.008-12.816,20.712-17.632,32H16z M80,416v-16h16v16h16v-16h16v16h16v-16h6.448c6.272,11.472,13.76,22.168,22.24,32H48
				v-32h16v16H80z M80,320v-16h16v16h16v-16h16.2c-0.112,2.656-0.2,5.32-0.2,8c0,8.136,0.584,16.136,1.616,24H48v-32h16v16H80z
				 M32,288v-32h16v16h16v-16h16v16h16v-16h16v16h16v-16h8.744c-3.304,10.304-5.688,21-7.128,32H32z M16,384v-32h16v16h16v-16h16v16
				h16v-16h16v16h16v-16h16v16h8.744c1.744,5.448,3.72,10.784,5.944,16H16z M16,480v-32h16v16h16v-16h16v16h16v-16h16v16h16v-16h16
				v16h16v-16h16v16h16v-16h12.192c1.24,1.128,2.528,2.208,3.808,3.312V464h16v-0.32c9.136,6.288,18.872,11.744,29.096,16.32H16z
				 M312,480c-92.64,0-168-75.368-168-168c0-92.64,75.36-168,168-168s168,75.36,168,168C480,404.632,404.64,480,312,480z"/>
			<path d="M312,160c-83.816,0-152,68.184-152,152s68.184,152,152,152s152-68.184,152-152S395.816,160,312,160z M312,448
				c-74.992,0-136-61.008-136-136s61.008-136,136-136s136,61.008,136,136S386.992,448,312,448z"/>
			<rect x="288" y="272" width="64" height="16"/>
			<path d="M384,280c0-19.312-13.768-35.472-32-39.192V224h-16v16h-32v-16h-16v16h-32v144h32v16h16v-16h16v-16h-48V256h72
				c13.232,0,24,10.768,24,24s-10.768,24-24,24h-56v16h56c13.232,0,24,10.768,24,24s-10.768,24-24,24h-8v8v8v16h16v-16.808
				c18.232-3.72,32-19.872,32-39.192c0-13.072-6.304-24.696-16.024-32C377.696,304.696,384,293.072,384,280z"/>
			<rect x="288" y="336" width="64" height="16"/>
			<path d="M192,312h16c0-4.488,0.376-9.2,1.192-14.856l-15.832-2.28C192.432,301.288,192,306.736,192,312z"/>
			<path d="M312,192c-52.656,0-99.936,35.248-114.968,85.72l15.336,4.56c13.024-43.736,54-74.28,99.632-74.28V192z"/>
		</g>
	</g>
</g>
<g>
</g>
<g>
</g>
<g>
</g>
<g>
</g>
<g>
</g>
<g>
</g>
<g>
</g>
<g>
</g>
<g>
</g>
<g>
</g>
<g>
</g>
<g>
</g>
<g>
</g>
<g>
</g>
<g>
</g>
</svg>
