<?xml version="1.0" encoding="utf-8"?>
<!-- Generator: Adobe Illustrator 19.1.0, SVG Export Plug-In . SVG Version: 6.00 Build 0)  -->
<svg version="1.1" id="Layer_1" xmlns="http://www.w3.org/2000/svg" xmlns:xlink="http://www.w3.org/1999/xlink" x="0px" y="0px"
	 viewBox="-41 164.9 512 512" style="enable-background:new -41 164.9 512 512;" xml:space="preserve">
<g>
	<g>
		<path d="M443,513.4l-89.8-89.8c-31.1-31.1-79.1-36.8-116.5-14.7l-9.5-9.5c22.2-37.4,16.4-85.4-14.7-116.5l-89.8-89.8
			c-18.1-18.1-42.1-28-67.8-28s-49.7,10-67.8,28C-31,211-41,235-41,260.7s10,49.7,28,67.8l89.8,89.8c18.1,18.1,42.1,28,67.8,28
			c17.3,0,34-4.6,48.8-13.3l9.5,9.5c-22.1,37.4-16.4,85.4,14.7,116.5l89.8,89.8c18.1,18.1,42.1,28,67.8,28c25.6,0,49.7-10,67.8-28
			c18.1-18.1,28-42.1,28-67.8C471,555.5,461,531.4,443,513.4z M144.6,430.4c-21.4,0-41.5-8.3-56.5-23.4l-89.8-89.8
			c-31.2-31.2-31.2-81.9,0-113.1c31.2-31.2,81.9-31.2,113.1,0l89.8,89.8c25,25,30.3,63,14.3,93.6l-11.9-11.9
			c10.1-23.8,4.9-52-13.6-70.5l-89.8-89.8c-25-25-65.6-25-90.6,0c-25,25-25,65.6,0,90.6l89.8,89.8c12.2,12.2,28.8,18.7,45.4,18.7
			c8.5,0,17-1.7,25.1-5.1l11.9,11.9C170.3,427.3,157.7,430.4,144.6,430.4z M94.8,334.4l62.5,62.5c-16.4,4.4-34.5,0-46.8-12.4
			l-89.8-89.8c-18.8-18.8-18.8-49.3,0-68.1c18.8-18.8,49.3-18.8,68.1,0l89.8,89.8c12.3,12.3,16.8,30.4,12.4,46.8l-62.5-62.5
			c-9.3-9.3-24.4-9.3-33.7,0c-4.5,4.5-7,10.5-7,16.8C87.9,323.9,90.3,329.9,94.8,334.4z M200.1,417.2l-23.1-23.1l-0.1-0.1
			c0,0,0,0,0,0l-70.9-70.9c-1.5-1.5-2.3-3.5-2.3-5.6c0-2.1,0.8-4.1,2.3-5.6c3.1-3.1,8.1-3.1,11.2,0l70.9,70.9c0,0,0,0,0,0l0.1,0.1
			l23.1,23.1l18.5,18.5c0,0,0,0,0,0l0.1,0.1c0,0,0,0,0,0l22.9,22.9c0,0,0,0,0,0l0.1,0.1c0,0,0,0,0,0l55.9,55.9
			c1.5,1.5,2.3,3.5,2.3,5.6c0,2.1-0.8,4.1-2.3,5.6c-1.5,1.5-3.5,2.3-5.6,2.3s-4.1-0.8-5.6-2.3l-55.9-55.9c0,0,0,0,0,0l-0.1-0.1
			c0,0,0,0,0,0l-22.9-22.9c0,0,0,0,0,0l-0.1-0.1c0,0,0,0,0,0L200.1,417.2z M320.2,492.4l-47.5-47.5c16.4-4.4,34.5,0,46.8,12.4
			l89.8,89.8c18.8,18.8,18.8,49.3,0,68.1c-18.8,18.8-49.3,18.8-68.1,0l-89.8-89.8C239,513,234.5,494.9,239,478.5l47.5,47.5
			c4.5,4.5,10.5,7,16.8,7c6.4,0,12.3-2.5,16.8-7c4.5-4.5,7-10.5,7-16.8C327.2,502.9,324.7,496.9,320.2,492.4z M431.7,637.6
			c-15.1,15.1-35.1,23.4-56.5,23.4s-41.5-8.3-56.5-23.4l-89.8-89.8c-25-25-30.3-63-14.3-93.6l11.9,11.9c-10.1,23.8-4.9,52,13.6,70.5
			l89.8,89.8c12.5,12.5,28.9,18.7,45.3,18.7s32.8-6.2,45.3-18.7c25-25,25-65.6,0-90.6L330.7,446c-18.5-18.5-46.7-23.7-70.5-13.6
			l-11.9-11.9c30.6-16.1,68.6-10.7,93.6,14.3l89.8,89.8c15.1,15.1,23.4,35.1,23.4,56.5C455.1,602.5,446.8,622.6,431.7,637.6z"/>
	</g>
</g>
</svg>
