<?xml version="1.0" encoding="iso-8859-1"?>
<!-- Generator: Adobe Illustrator 19.0.0, SVG Export Plug-In . SVG Version: 6.00 Build 0)  -->
<svg version="1.1" id="Layer_1" xmlns="http://www.w3.org/2000/svg" xmlns:xlink="http://www.w3.org/1999/xlink" x="0px" y="0px"
	 viewBox="0 0 496 496" style="enable-background:new 0 0 496 496;" xml:space="preserve">
<g>
	<g>
		<g>
			<path d="M344,352c0-52.936-43.064-96-96-96c-52.936,0-96,43.064-96,96c0,52.936,43.064,96,96,96C300.936,448,344,404.936,344,352
				z M248,432c-44.112,0-80-35.888-80-80s35.888-80,80-80s80,35.888,80,80S292.112,432,248,432z"/>
			<path d="M179.208,373.304l15.288-4.72c-6.152-19.92-0.824-41.448,13.904-56.184l-11.312-11.312
				C178.144,320.024,171.296,347.696,179.208,373.304z"/>
			<path d="M186.544,389.536c2.952,4.832,6.496,9.328,10.536,13.376L208.4,391.6c-3.152-3.16-5.912-6.656-8.208-10.408
				L186.544,389.536z"/>
			<path d="M260,304h-4v-16h-16v16h-16v40v16v40h16v16h16v-16h4c15.44,0,28-12.56,28-28c0-7.84-3.256-14.912-8.464-20
				c5.208-5.088,8.464-12.16,8.464-20C288,316.56,275.44,304,260,304z M260,384h-20v-24h20c6.616,0,12,5.384,12,12
				C272,378.616,266.616,384,260,384z M260,344h-20v-24h20c6.616,0,12,5.384,12,12C272,338.616,266.616,344,260,344z"/>
			<path d="M424,256v-48h-16v-48C408,71.776,336.224,0,248,0S88,71.776,88,160v48H72v48h16v192H72v48h352v-48h-16V256H424z M104,160
				c0-79.4,64.6-144,144-144s144,64.6,144,144v48h-32v-48c0-61.76-50.24-112-112-112S136,98.24,136,160v48h-32V160z M344,160v48H152
				v-48c0-52.936,43.064-96,96-96C300.936,64,344,107.064,344,160z M408,480H88v-16h320V480z M360,240v16h32v32h-16v16h16v16h-16v16
				h16v16h-16v16h16v16h-16v16h16v48H248H104v-48h16v-16h-16v-16h16v-16h-16v-16h16v-16h-16v-16h16v-16h-16v-32h144h96v-16H88v-16
				h64h192h64v16H360z"/>
		</g>
	</g>
</g>
<g>
</g>
<g>
</g>
<g>
</g>
<g>
</g>
<g>
</g>
<g>
</g>
<g>
</g>
<g>
</g>
<g>
</g>
<g>
</g>
<g>
</g>
<g>
</g>
<g>
</g>
<g>
</g>
<g>
</g>
</svg>
