<?xml version="1.0" encoding="utf-8"?>
<!-- Generator: Adobe Illustrator 19.1.0, SVG Export Plug-In . SVG Version: 6.00 Build 0)  -->
<svg version="1.1" id="Capa_1" xmlns="http://www.w3.org/2000/svg" xmlns:xlink="http://www.w3.org/1999/xlink" x="0px" y="0px"
	 viewBox="-153 277 288.9 288.9" style="enable-background:new -153 277 288.9 288.9;" xml:space="preserve">
<style type="text/css">
	.st0{fill:#0E6CFD;}
</style>
<g>
	<path class="st0" d="M-54.1,341.5c1.2,0,2.3-0.4,3.2-1.3l37.9-37.9v162.4c0,2.5,2,4.6,4.6,4.6s4.6-2,4.6-4.6V302.2L33.9,340
		c1.8,1.8,4.7,1.8,6.5,0c1.8-1.8,1.8-4.7,0-6.5L-5.2,288c-0.4-0.4-0.9-0.8-1.5-1c-1.1-0.5-2.4-0.5-3.5,0c-0.6,0.2-1.1,0.6-1.5,1
		l-45.7,45.7c-1.8,1.8-1.8,4.7,0,6.5C-56.5,341-55.3,341.5-54.1,341.5z"/>
	<path class="st0" d="M23.5,359.6c-2.5,0-4.6,2-4.6,4.6c0,2.5,2,4.6,4.6,4.6h59.3v178H-99.7v-178h59.3c2.5,0,4.6-2,4.6-4.6
		c0-2.5-2-4.6-4.6-4.6h-68.5v196.2H92V359.6C92,359.6,23.5,359.6,23.5,359.6z"/>
</g>
</svg>
